<mxfile host="app.diagrams.net" agent="Mozilla/5.0 (Windows NT 10.0; Win64; x64) AppleWebKit/537.36 (KHTML, like Gecko) Chrome/134.0.0.0 Safari/537.36 Edg/134.0.0.0" version="26.1.1">
  <diagram name="Page-1" id="AyVXiodIE-NmmT5a-MFT">
    <mxGraphModel dx="1368" dy="731" grid="1" gridSize="10" guides="1" tooltips="1" connect="1" arrows="1" fold="1" page="1" pageScale="1" pageWidth="850" pageHeight="1100" math="0" shadow="0">
      <root>
        <mxCell id="0" />
        <mxCell id="1" parent="0" />
        <UserObject label="" plantUmlData="{&#xa;  &quot;data&quot;: &quot;@startuml\nstate \&quot;Available\&quot; as Available : Entry/ update seat availability\nstate \&quot;Locked\&quot; as Locked : Entry/ reserve seats\\nExit/ release seats\nstate \&quot;Booked\&quot; as Booked : Entry/ send confirmation\nstate \&quot;Cancelled\&quot; as Cancelled : Entry/ release seats\nstate \&quot;Waitlisted\&quot; as Waitlisted : Entry/ notify user\n\n[*] --&gt; Available\n\nAvailable --&gt; Locked : selectSeats()\nLocked --&gt; Booked : confirmPayment() [payment success]\nLocked --&gt; Available : timeout() or cancelSelection()\nBooked --&gt; Cancelled : cancelBooking() [before event]\nBooked --&gt; Available : eventCompleted() [after event]\nAvailable --&gt; Waitlisted : seatsFull() [if no seats]\nWaitlisted --&gt; Booked : seatAvailable() [guard: seat freed]\nWaitlisted --&gt; Cancelled : cancelWaitlist()\n\nCancelled --&gt; [*]\n@enduml&quot;,&#xa;  &quot;format&quot;: &quot;svg&quot;&#xa;}" id="HTzx3mXwLKjGqoxVnwJw-2">
          <mxCell style="shape=image;noLabel=1;verticalAlign=top;aspect=fixed;imageAspect=0;image=data:image/svg+xml,PHN2ZyB4bWxucz0iaHR0cDovL3d3dy53My5vcmcvMjAwMC9zdmciIHhtbG5zOnhsaW5rPSJodHRwOi8vd3d3LnczLm9yZy8xOTk5L3hsaW5rIiBjb250ZW50U3R5bGVUeXBlPSJ0ZXh0L2NzcyIgZGF0YS1kaWFncmFtLXR5cGU9IlNUQVRFIiBoZWlnaHQ9IjYxMnB4IiBwcmVzZXJ2ZUFzcGVjdFJhdGlvPSJub25lIiBzdHlsZT0id2lkdGg6Nzk2cHg7aGVpZ2h0OjYxMnB4O2JhY2tncm91bmQ6I0ZGRkZGRjsiIHZlcnNpb249IjEuMSIgdmlld0JveD0iMCAwIDc5NiA2MTIiIHdpZHRoPSI3OTZweCIgem9vbUFuZFBhbj0ibWFnbmlmeSI+PGRlZnMvPjxnPjxnIGlkPSJBdmFpbGFibGUiPjxyZWN0IGZpbGw9IiNGMUYxRjEiIGhlaWdodD0iNTAiIHJ4PSIxMi41IiByeT0iMTIuNSIgc3R5bGU9InN0cm9rZTojMTgxODE4O3N0cm9rZS13aWR0aDowLjU7IiB3aWR0aD0iMjA2IiB4PSIxNTguNTMiIHk9Ijg3Ii8+PGxpbmUgc3R5bGU9InN0cm9rZTojMTgxODE4O3N0cm9rZS13aWR0aDowLjU7IiB4MT0iMTU4LjUzIiB4Mj0iMzY0LjUzIiB5MT0iMTExLjk4NDQiIHkyPSIxMTEuOTg0NCIvPjx0ZXh0IGZpbGw9IiMwMDAwMDAiIGZvbnQtZmFtaWx5PSJzYW5zLXNlcmlmIiBmb250LXNpemU9IjE0IiBsZW5ndGhBZGp1c3Q9InNwYWNpbmciIHRleHRMZW5ndGg9IjYzIiB4PSIyMzAuMDMiIHk9IjEwNS4yMzQ0Ij5BdmFpbGFibGU8L3RleHQ+PHRleHQgZmlsbD0iIzAwMDAwMCIgZm9udC1mYW1pbHk9InNhbnMtc2VyaWYiIGZvbnQtc2l6ZT0iMTIiIGxlbmd0aEFkanVzdD0ic3BhY2luZyIgdGV4dExlbmd0aD0iMTg2IiB4PSIxNjMuNTMiIHk9IjEyOC4zMjgxIj5FbnRyeS8gdXBkYXRlIHNlYXQgYXZhaWxhYmlsaXR5PC90ZXh0PjwvZz48ZyBpZD0iTG9ja2VkIj48cmVjdCBmaWxsPSIjRjFGMUYxIiBoZWlnaHQ9IjYwLjY3MTkiIHJ4PSIxMi41IiByeT0iMTIuNSIgc3R5bGU9InN0cm9rZTojMTgxODE4O3N0cm9rZS13aWR0aDowLjU7IiB3aWR0aD0iMTQwIiB4PSI1NS41MyIgeT0iMjEyIi8+PGxpbmUgc3R5bGU9InN0cm9rZTojMTgxODE4O3N0cm9rZS13aWR0aDowLjU7IiB4MT0iNTUuNTMiIHgyPSIxOTUuNTMiIHkxPSIyMzYuOTg0NCIgeTI9IjIzNi45ODQ0Ii8+PHRleHQgZmlsbD0iIzAwMDAwMCIgZm9udC1mYW1pbHk9InNhbnMtc2VyaWYiIGZvbnQtc2l6ZT0iMTQiIGxlbmd0aEFkanVzdD0ic3BhY2luZyIgdGV4dExlbmd0aD0iNDIiIHg9IjEwNC41MyIgeT0iMjMwLjIzNDQiPkxvY2tlZDwvdGV4dD48dGV4dCBmaWxsPSIjMDAwMDAwIiBmb250LWZhbWlseT0ic2Fucy1zZXJpZiIgZm9udC1zaXplPSIxMiIgbGVuZ3RoQWRqdXN0PSJzcGFjaW5nIiB0ZXh0TGVuZ3RoPSIxMjAiIHg9IjYwLjUzIiB5PSIyNTMuMzI4MSI+RW50cnkvIHJlc2VydmUgc2VhdHM8L3RleHQ+PHRleHQgZmlsbD0iIzAwMDAwMCIgZm9udC1mYW1pbHk9InNhbnMtc2VyaWYiIGZvbnQtc2l6ZT0iMTIiIGxlbmd0aEFkanVzdD0ic3BhY2luZyIgdGV4dExlbmd0aD0iMTE0IiB4PSI2MC41MyIgeT0iMjY2LjE3MTkiPkV4aXQvIHJlbGVhc2Ugc2VhdHM8L3RleHQ+PC9nPjxnIGlkPSJCb29rZWQiPjxyZWN0IGZpbGw9IiNGMUYxRjEiIGhlaWdodD0iNTAiIHJ4PSIxMi41IiByeT0iMTIuNSIgc3R5bGU9InN0cm9rZTojMTgxODE4O3N0cm9rZS13aWR0aDowLjU7IiB3aWR0aD0iMTY0IiB4PSIzMTEuNTMiIHk9IjM0OCIvPjxsaW5lIHN0eWxlPSJzdHJva2U6IzE4MTgxODtzdHJva2Utd2lkdGg6MC41OyIgeDE9IjMxMS41MyIgeDI9IjQ3NS41MyIgeTE9IjM3Mi45ODQ0IiB5Mj0iMzcyLjk4NDQiLz48dGV4dCBmaWxsPSIjMDAwMDAwIiBmb250LWZhbWlseT0ic2Fucy1zZXJpZiIgZm9udC1zaXplPSIxNCIgbGVuZ3RoQWRqdXN0PSJzcGFjaW5nIiB0ZXh0TGVuZ3RoPSI0MiIgeD0iMzcyLjUzIiB5PSIzNjYuMjM0NCI+Qm9va2VkPC90ZXh0Pjx0ZXh0IGZpbGw9IiMwMDAwMDAiIGZvbnQtZmFtaWx5PSJzYW5zLXNlcmlmIiBmb250LXNpemU9IjEyIiBsZW5ndGhBZGp1c3Q9InNwYWNpbmciIHRleHRMZW5ndGg9IjE0NCIgeD0iMzE2LjUzIiB5PSIzODkuMzI4MSI+RW50cnkvIHNlbmQgY29uZmlybWF0aW9uPC90ZXh0PjwvZz48ZyBpZD0iQ2FuY2VsbGVkIj48cmVjdCBmaWxsPSIjRjFGMUYxIiBoZWlnaHQ9IjUwIiByeD0iMTIuNSIgcnk9IjEyLjUiIHN0eWxlPSJzdHJva2U6IzE4MTgxODtzdHJva2Utd2lkdGg6MC41OyIgd2lkdGg9IjE0MCIgeD0iNDU2LjUzIiB5PSI0NzMiLz48bGluZSBzdHlsZT0ic3Ryb2tlOiMxODE4MTg7c3Ryb2tlLXdpZHRoOjAuNTsiIHgxPSI0NTYuNTMiIHgyPSI1OTYuNTMiIHkxPSI0OTcuOTg0NCIgeTI9IjQ5Ny45ODQ0Ii8+PHRleHQgZmlsbD0iIzAwMDAwMCIgZm9udC1mYW1pbHk9InNhbnMtc2VyaWYiIGZvbnQtc2l6ZT0iMTQiIGxlbmd0aEFkanVzdD0ic3BhY2luZyIgdGV4dExlbmd0aD0iNjMiIHg9IjQ5NS4wMyIgeT0iNDkxLjIzNDQiPkNhbmNlbGxlZDwvdGV4dD48dGV4dCBmaWxsPSIjMDAwMDAwIiBmb250LWZhbWlseT0ic2Fucy1zZXJpZiIgZm9udC1zaXplPSIxMiIgbGVuZ3RoQWRqdXN0PSJzcGFjaW5nIiB0ZXh0TGVuZ3RoPSIxMjAiIHg9IjQ2MS41MyIgeT0iNTE0LjMyODEiPkVudHJ5LyByZWxlYXNlIHNlYXRzPC90ZXh0PjwvZz48ZyBpZD0iV2FpdGxpc3RlZCI+PHJlY3QgZmlsbD0iI0YxRjFGMSIgaGVpZ2h0PSI1MCIgcng9IjEyLjUiIHJ5PSIxMi41IiBzdHlsZT0ic3Ryb2tlOiMxODE4MTg7c3Ryb2tlLXdpZHRoOjAuNTsiIHdpZHRoPSIxMjgiIHg9IjYwMy41MyIgeT0iMjE3LjUiLz48bGluZSBzdHlsZT0ic3Ryb2tlOiMxODE4MTg7c3Ryb2tlLXdpZHRoOjAuNTsiIHgxPSI2MDMuNTMiIHgyPSI3MzEuNTMiIHkxPSIyNDIuNDg0NCIgeTI9IjI0Mi40ODQ0Ii8+PHRleHQgZmlsbD0iIzAwMDAwMCIgZm9udC1mYW1pbHk9InNhbnMtc2VyaWYiIGZvbnQtc2l6ZT0iMTQiIGxlbmd0aEFkanVzdD0ic3BhY2luZyIgdGV4dExlbmd0aD0iNzAiIHg9IjYzMi41MyIgeT0iMjM1LjczNDQiPldhaXRsaXN0ZWQ8L3RleHQ+PHRleHQgZmlsbD0iIzAwMDAwMCIgZm9udC1mYW1pbHk9InNhbnMtc2VyaWYiIGZvbnQtc2l6ZT0iMTIiIGxlbmd0aEFkanVzdD0ic3BhY2luZyIgdGV4dExlbmd0aD0iMTA4IiB4PSI2MDguNTMiIHk9IjI1OC44MjgxIj5FbnRyeS8gbm90aWZ5IHVzZXI8L3RleHQ+PC9nPjxlbGxpcHNlIGN4PSIyNjEuNTMiIGN5PSIxNiIgZmlsbD0iIzIyMjIyMiIgcng9IjEwIiByeT0iMTAiIHN0eWxlPSJzdHJva2U6IzIyMjIyMjtzdHJva2Utd2lkdGg6MTsiLz48ZWxsaXBzZSBjeD0iNTI2LjUzIiBjeT0iNTk1IiBmaWxsPSJub25lIiByeD0iMTEiIHJ5PSIxMSIgc3R5bGU9InN0cm9rZTojMjIyMjIyO3N0cm9rZS13aWR0aDoxOyIvPjxlbGxpcHNlIGN4PSI1MjYuNTMiIGN5PSI1OTUiIGZpbGw9IiMyMjIyMjIiIHJ4PSI2IiByeT0iNiIgc3R5bGU9InN0cm9rZTojMjIyMjIyO3N0cm9rZS13aWR0aDoxOyIvPjwhLS1saW5rICpzdGFydCogdG8gQXZhaWxhYmxlLS0+PGcgY2xhc3M9ImxpbmsiIGRhdGEtZW50aXR5LTE9IipzdGFydCoiIGRhdGEtZW50aXR5LTI9IkF2YWlsYWJsZSIgZGF0YS1zb3VyY2UtbGluZT0iNyIgZGF0YS11aWQ9ImxuazMiIGlkPSJsaW5rXypzdGFydCpfQXZhaWxhYmxlIj48cGF0aCBkPSJNMjYxLjUzLDI2LjAxIEMyNjEuNTMsMzkuODkgMjYxLjUzLDYwLjk3IDI2MS41Myw4MC44NCIgZmlsbD0ibm9uZSIgaWQ9IipzdGFydCotdG8tQXZhaWxhYmxlIiBzdHlsZT0ic3Ryb2tlOiMxODE4MTg7c3Ryb2tlLXdpZHRoOjE7Ii8+PHBvbHlnb24gZmlsbD0iIzE4MTgxOCIgcG9pbnRzPSIyNjEuNTMsODYuODQsMjY1LjUzLDc3Ljg0LDI2MS41Myw4MS44NCwyNTcuNTMsNzcuODQsMjYxLjUzLDg2Ljg0IiBzdHlsZT0ic3Ryb2tlOiMxODE4MTg7c3Ryb2tlLXdpZHRoOjE7Ii8+PC9nPjwhLS1saW5rIEF2YWlsYWJsZSB0byBMb2NrZWQtLT48ZyBjbGFzcz0ibGluayIgZGF0YS1lbnRpdHktMT0iQXZhaWxhYmxlIiBkYXRhLWVudGl0eS0yPSJMb2NrZWQiIGRhdGEtc291cmNlLWxpbmU9IjkiIGRhdGEtdWlkPSJsbms0IiBpZD0ibGlua19BdmFpbGFibGVfTG9ja2VkIj48cGF0aCBkPSJNMTU4LjM1LDEyMy41MyBDMTAxLjg3LDEzMS42NiAzOS45LDE0NS4yOCAyMi41MywxNjcgQzYsMTg3LjY5IDIyLjE2NjMsMjAyLjgwNTQgNDkuNzc2MywyMTUuNzM1NCIgZmlsbD0ibm9uZSIgaWQ9IkF2YWlsYWJsZS10by1Mb2NrZWQiIHN0eWxlPSJzdHJva2U6IzE4MTgxODtzdHJva2Utd2lkdGg6MTsiLz48cG9seWdvbiBmaWxsPSIjMTgxODE4IiBwb2ludHM9IjU1LjIxLDIxOC4yOCw0OC43NTU5LDIxMC44NDA2LDUwLjY4MTksMjE2LjE1OTUsNDUuMzYzMSwyMTguMDg1NSw1NS4yMSwyMTguMjgiIHN0eWxlPSJzdHJva2U6IzE4MTgxODtzdHJva2Utd2lkdGg6MTsiLz48dGV4dCBmaWxsPSIjMDAwMDAwIiBmb250LWZhbWlseT0ic2Fucy1zZXJpZiIgZm9udC1zaXplPSIxMyIgbGVuZ3RoQWRqdXN0PSJzcGFjaW5nIiB0ZXh0TGVuZ3RoPSI4NC41IiB4PSIyMy41MyIgeT0iMTgwLjI4OTEiPnNlbGVjdFNlYXRzKCk8L3RleHQ+PC9nPjwhLS1saW5rIExvY2tlZCB0byBBdmFpbGFibGUtLT48ZyBjbGFzcz0ibGluayIgZGF0YS1lbnRpdHktMT0iTG9ja2VkIiBkYXRhLWVudGl0eS0yPSJBdmFpbGFibGUiIGRhdGEtc291cmNlLWxpbmU9IjExIiBkYXRhLXVpZD0ibG5rNiIgaWQ9ImxpbmtfTG9ja2VkX0F2YWlsYWJsZSI+PHBhdGggZD0iTTEyOC45NywyMTEuOTEgQzEzMi4wMSwxOTcuMDEgMTM3Ljc0LDE3OS41IDE0OC41MywxNjcgQzE1OS4yNiwxNTQuNTcgMTY4LjE2MjMsMTQ3LjUzOTcgMTgyLjg5MjMsMTM5LjkwOTciIGZpbGw9Im5vbmUiIGlkPSJMb2NrZWQtdG8tQXZhaWxhYmxlIiBzdHlsZT0ic3Ryb2tlOiMxODE4MTg7c3Ryb2tlLXdpZHRoOjE7Ii8+PHBvbHlnb24gZmlsbD0iIzE4MTgxOCIgcG9pbnRzPSIxODguMjIsMTM3LjE1LDE3OC4zODg3LDEzNy43Mzc3LDE4My43ODAzLDEzOS40NDk3LDE4Mi4wNjgzLDE0NC44NDEzLDE4OC4yMiwxMzcuMTUiIHN0eWxlPSJzdHJva2U6IzE4MTgxODtzdHJva2Utd2lkdGg6MTsiLz48dGV4dCBmaWxsPSIjMDAwMDAwIiBmb250LWZhbWlseT0ic2Fucy1zZXJpZiIgZm9udC1zaXplPSIxMyIgbGVuZ3RoQWRqdXN0PSJzcGFjaW5nIiB0ZXh0TGVuZ3RoPSIxOTUiIHg9IjE0OS41MyIgeT0iMTgwLjI4OTEiPnRpbWVvdXQoKSBvciBjYW5jZWxTZWxlY3Rpb24oKTwvdGV4dD48L2c+PCEtLWxpbmsgTG9ja2VkIHRvIEJvb2tlZC0tPjxnIGNsYXNzPSJsaW5rIiBkYXRhLWVudGl0eS0xPSJMb2NrZWQiIGRhdGEtZW50aXR5LTI9IkJvb2tlZCIgZGF0YS1zb3VyY2UtbGluZT0iMTAiIGRhdGEtdWlkPSJsbms1IiBpZD0ibGlua19Mb2NrZWRfQm9va2VkIj48cGF0aCBkPSJNMTE1LjcsMjczLjMzIEMxMTIuNzMsMjg4LjMgMTEyLjUyLDMwNS43OSAxMjIuNTMsMzE4IEMxNDYuMTIsMzQ2Ljc0IDIzNC41MTQxLDM1OS45NDMxIDMwNS4zMDQxLDM2Ni4zMDMxIiBmaWxsPSJub25lIiBpZD0iTG9ja2VkLXRvLUJvb2tlZCIgc3R5bGU9InN0cm9rZTojMTgxODE4O3N0cm9rZS13aWR0aDoxOyIvPjxwb2x5Z29uIGZpbGw9IiMxODE4MTgiIHBvaW50cz0iMzExLjI4LDM2Ni44NCwzMDIuNjc0LDM2Mi4wNTA3LDMwNi4zMDAxLDM2Ni4zOTI2LDMwMS45NTgyLDM3MC4wMTg2LDMxMS4yOCwzNjYuODQiIHN0eWxlPSJzdHJva2U6IzE4MTgxODtzdHJva2Utd2lkdGg6MTsiLz48dGV4dCBmaWxsPSIjMDAwMDAwIiBmb250LWZhbWlseT0ic2Fucy1zZXJpZiIgZm9udC1zaXplPSIxMyIgbGVuZ3RoQWRqdXN0PSJzcGFjaW5nIiB0ZXh0TGVuZ3RoPSIyMjEiIHg9IjEyMy41MyIgeT0iMzE2LjI4OTEiPmNvbmZpcm1QYXltZW50KCkgW3BheW1lbnQgc3VjY2Vzc108L3RleHQ+PC9nPjwhLS1saW5rIEJvb2tlZCB0byBDYW5jZWxsZWQtLT48ZyBjbGFzcz0ibGluayIgZGF0YS1lbnRpdHktMT0iQm9va2VkIiBkYXRhLWVudGl0eS0yPSJDYW5jZWxsZWQiIGRhdGEtc291cmNlLWxpbmU9IjEyIiBkYXRhLXVpZD0ibG5rNyIgaWQ9ImxpbmtfQm9va2VkX0NhbmNlbGxlZCI+PHBhdGggZD0iTTQxNC42OSwzOTguMTMgQzQyNy4wMyw0MTEuNzcgNDQzLjE0LDQyOC44NiA0NTguNTMsNDQzIEM0NjkuNzUsNDUzLjMgNDc3Ljk1ODUsNDYwLjE5MDQgNDg5LjUzODUsNDY5LjIyMDQiIGZpbGw9Im5vbmUiIGlkPSJCb29rZWQtdG8tQ2FuY2VsbGVkIiBzdHlsZT0ic3Ryb2tlOiMxODE4MTg7c3Ryb2tlLXdpZHRoOjE7Ii8+PHBvbHlnb24gZmlsbD0iIzE4MTgxOCIgcG9pbnRzPSI0OTQuMjcsNDcyLjkxLDQ4OS42MzI1LDQ2NC4yMjEzLDQ5MC4zMjcxLDQ2OS44MzUzLDQ4NC43MTMsNDcwLjUzLDQ5NC4yNyw0NzIuOTEiIHN0eWxlPSJzdHJva2U6IzE4MTgxODtzdHJva2Utd2lkdGg6MTsiLz48dGV4dCBmaWxsPSIjMDAwMDAwIiBmb250LWZhbWlseT0ic2Fucy1zZXJpZiIgZm9udC1zaXplPSIxMyIgbGVuZ3RoQWRqdXN0PSJzcGFjaW5nIiB0ZXh0TGVuZ3RoPSIxOTUiIHg9IjQ1OS41MyIgeT0iNDQxLjI4OTEiPmNhbmNlbEJvb2tpbmcoKSBbYmVmb3JlIGV2ZW50XTwvdGV4dD48L2c+PCEtLWxpbmsgQm9va2VkIHRvIEF2YWlsYWJsZS0tPjxnIGNsYXNzPSJsaW5rIiBkYXRhLWVudGl0eS0xPSJCb29rZWQiIGRhdGEtZW50aXR5LTI9IkF2YWlsYWJsZSIgZGF0YS1zb3VyY2UtbGluZT0iMTMiIGRhdGEtdWlkPSJsbms4IiBpZD0ibGlua19Cb29rZWRfQXZhaWxhYmxlIj48cGF0aCBkPSJNMzk0LjI0LDM0Ny43OSBDMzk0LjI0LDMwNi43OCAzODguOTYsMjIyLjcxIDM0OS41MywxNjcgQzM0MC45NCwxNTQuODYgMzMzLjc2MDIsMTQ4LjA4NjQgMzIxLjEwMDIsMTQwLjE4NjQiIGZpbGw9Im5vbmUiIGlkPSJCb29rZWQtdG8tQXZhaWxhYmxlIiBzdHlsZT0ic3Ryb2tlOiMxODE4MTg7c3Ryb2tlLXdpZHRoOjE7Ii8+PHBvbHlnb24gZmlsbD0iIzE4MTgxOCIgcG9pbnRzPSIzMTYuMDEsMTM3LjAxLDMyMS41Mjc4LDE0NS4xNjgxLDMyMC4yNTE5LDEzOS42NTcsMzI1Ljc2MywxMzguMzgxMSwzMTYuMDEsMTM3LjAxIiBzdHlsZT0ic3Ryb2tlOiMxODE4MTg7c3Ryb2tlLXdpZHRoOjE7Ii8+PHRleHQgZmlsbD0iIzAwMDAwMCIgZm9udC1mYW1pbHk9InNhbnMtc2VyaWYiIGZvbnQtc2l6ZT0iMTMiIGxlbmd0aEFkanVzdD0ic3BhY2luZyIgdGV4dExlbmd0aD0iMTk1IiB4PSIzODguNTMiIHk9IjI0OC4yODkxIj5ldmVudENvbXBsZXRlZCgpIFthZnRlciBldmVudF08L3RleHQ+PC9nPjwhLS1saW5rIEF2YWlsYWJsZSB0byBXYWl0bGlzdGVkLS0+PGcgY2xhc3M9ImxpbmsiIGRhdGEtZW50aXR5LTE9IkF2YWlsYWJsZSIgZGF0YS1lbnRpdHktMj0iV2FpdGxpc3RlZCIgZGF0YS1zb3VyY2UtbGluZT0iMTQiIGRhdGEtdWlkPSJsbms5IiBpZD0ibGlua19BdmFpbGFibGVfV2FpdGxpc3RlZCI+PHBhdGggZD0iTTMzOC42MiwxMzcuMDIgQzQwMi40MywxNTYuOTUgNDk1LjQ0LDE4Ni4xMSA1NzYuNTMsMjEyIEM1ODUuMjQsMjE0Ljc4IDU4OC42OTE3LDIxNS44NzIxIDU5Ny43MTE3LDIxOC43OTIxIiBmaWxsPSJub25lIiBpZD0iQXZhaWxhYmxlLXRvLVdhaXRsaXN0ZWQiIHN0eWxlPSJzdHJva2U6IzE4MTgxODtzdHJva2Utd2lkdGg6MTsiLz48cG9seWdvbiBmaWxsPSIjMTgxODE4IiBwb2ludHM9IjYwMy40MiwyMjAuNjQsNTk2LjA4OTQsMjE0LjA2MjUsNTk4LjY2MzEsMjE5LjEwMDEsNTkzLjYyNTUsMjIxLjY3MzcsNjAzLjQyLDIyMC42NCIgc3R5bGU9InN0cm9rZTojMTgxODE4O3N0cm9rZS13aWR0aDoxOyIvPjx0ZXh0IGZpbGw9IiMwMDAwMDAiIGZvbnQtZmFtaWx5PSJzYW5zLXNlcmlmIiBmb250LXNpemU9IjEzIiBsZW5ndGhBZGp1c3Q9InNwYWNpbmciIHRleHRMZW5ndGg9IjE2Mi41IiB4PSI0ODEuNTMiIHk9IjE4MC4yODkxIj5zZWF0c0Z1bGwoKSBbaWYgbm8gc2VhdHNdPC90ZXh0PjwvZz48IS0tbGluayBXYWl0bGlzdGVkIHRvIEJvb2tlZC0tPjxnIGNsYXNzPSJsaW5rIiBkYXRhLWVudGl0eS0xPSJXYWl0bGlzdGVkIiBkYXRhLWVudGl0eS0yPSJCb29rZWQiIGRhdGEtc291cmNlLWxpbmU9IjE1IiBkYXRhLXVpZD0ibG5rMTAiIGlkPSJsaW5rX1dhaXRsaXN0ZWRfQm9va2VkIj48cGF0aCBkPSJNNjAzLjE4LDI2NS4zOCBDNTk0LjI4LDI2OC4xMSA1ODUuMjEsMjcwLjczIDU3Ni41MywyNzMgQzUxMC43NSwyOTAuMTggNDgwLjIsMjYxLjI2IDQyNi41MywzMDMgQzQxMi4zOCwzMTQuMDEgNDA1Ljc4OTcsMzI2Ljg2OTQgNDAxLjAwOTcsMzQxLjk3OTQiIGZpbGw9Im5vbmUiIGlkPSJXYWl0bGlzdGVkLXRvLUJvb2tlZCIgc3R5bGU9InN0cm9rZTojMTgxODE4O3N0cm9rZS13aWR0aDoxOyIvPjxwb2x5Z29uIGZpbGw9IiMxODE4MTgiIHBvaW50cz0iMzk5LjIsMzQ3LjcsNDA1LjcyODMsMzQwLjMyNTYsNDAwLjcwODEsMzQyLjkzMjksMzk4LjEwMDgsMzM3LjkxMjcsMzk5LjIsMzQ3LjciIHN0eWxlPSJzdHJva2U6IzE4MTgxODtzdHJva2Utd2lkdGg6MTsiLz48dGV4dCBmaWxsPSIjMDAwMDAwIiBmb250LWZhbWlseT0ic2Fucy1zZXJpZiIgZm9udC1zaXplPSIxMyIgbGVuZ3RoQWRqdXN0PSJzcGFjaW5nIiB0ZXh0TGVuZ3RoPSIyMjcuNSIgeD0iNDI3LjUzIiB5PSIzMTYuMjg5MSI+c2VhdEF2YWlsYWJsZSgpIFtndWFyZDogc2VhdCBmcmVlZF08L3RleHQ+PC9nPjwhLS1saW5rIFdhaXRsaXN0ZWQgdG8gQ2FuY2VsbGVkLS0+PGcgY2xhc3M9ImxpbmsiIGRhdGEtZW50aXR5LTE9IldhaXRsaXN0ZWQiIGRhdGEtZW50aXR5LTI9IkNhbmNlbGxlZCIgZGF0YS1zb3VyY2UtbGluZT0iMTYiIGRhdGEtdWlkPSJsbmsxMSIgaWQ9ImxpbmtfV2FpdGxpc3RlZF9DYW5jZWxsZWQiPjxwYXRoIGQ9Ik02NzQuMjMsMjY3LjYxIEM2ODMuODksMzA3Ljk2IDY5Ni44MSwzODkuOTcgNjU5LjUzLDQ0MyBDNjQ0Ljg1LDQ2My45IDYyNi4yOTczLDQ3NC44Mzg0IDYwMi40OTczLDQ4Mi42OTg0IiBmaWxsPSJub25lIiBpZD0iV2FpdGxpc3RlZC10by1DYW5jZWxsZWQiIHN0eWxlPSJzdHJva2U6IzE4MTgxODtzdHJva2Utd2lkdGg6MTsiLz48cG9seWdvbiBmaWxsPSIjMTgxODE4IiBwb2ludHM9IjU5Ni44LDQ4NC41OCw2MDYuNjAwNCw0ODUuNTU1OSw2MDEuNTQ3OCw0ODMuMDEyLDYwNC4wOTE2LDQ3Ny45NTk0LDU5Ni44LDQ4NC41OCIgc3R5bGU9InN0cm9rZTojMTgxODE4O3N0cm9rZS13aWR0aDoxOyIvPjx0ZXh0IGZpbGw9IiMwMDAwMDAiIGZvbnQtZmFtaWx5PSJzYW5zLXNlcmlmIiBmb250LXNpemU9IjEzIiBsZW5ndGhBZGp1c3Q9InNwYWNpbmciIHRleHRMZW5ndGg9IjEwNCIgeD0iNjg0LjUzIiB5PSIzNzguNzg5MSI+Y2FuY2VsV2FpdGxpc3QoKTwvdGV4dD48L2c+PCEtLWxpbmsgQ2FuY2VsbGVkIHRvICplbmQqLS0+PGcgY2xhc3M9ImxpbmsiIGRhdGEtZW50aXR5LTE9IkNhbmNlbGxlZCIgZGF0YS1lbnRpdHktMj0iKmVuZCoiIGRhdGEtc291cmNlLWxpbmU9IjE4IiBkYXRhLXVpZD0ibG5rMTMiIGlkPSJsaW5rX0NhbmNlbGxlZF8qZW5kKiI+PHBhdGggZD0iTTUyNi41Myw1MjMuNDYgQzUyNi41Myw1NDMuMDQgNTI2LjUzLDU2My40OSA1MjYuNTMsNTc3LjgiIGZpbGw9Im5vbmUiIGlkPSJDYW5jZWxsZWQtdG8tKmVuZCoiIHN0eWxlPSJzdHJva2U6IzE4MTgxODtzdHJva2Utd2lkdGg6MTsiLz48cG9seWdvbiBmaWxsPSIjMTgxODE4IiBwb2ludHM9IjUyNi41Myw1ODMuOCw1MzAuNTMsNTc0LjgsNTI2LjUzLDU3OC44LDUyMi41Myw1NzQuOCw1MjYuNTMsNTgzLjgiIHN0eWxlPSJzdHJva2U6IzE4MTgxODtzdHJva2Utd2lkdGg6MTsiLz48L2c+PCEtLVNSQz1bUlA0elJ5Q1c0OFB0VmlLZktyOGZ3andYS1hrYkt1UEE2SmdhN1dXLUh3V09CM1hSelJ5bFBzbjNiNnh0elRwQmxHSUlYQjF2NndHc3ljZm0wcEIwY2k0QjcydHZ5SGR3aGtSMVc5OTBmaE9zY2FPSHFlQUpLcHpPSnRHQUMtZW5lMXlJNnh4anlMU0o1bXRBQzFVTjlVX0VCS2pJYzlTNGozS2VQbmxqTXFkUXNPS3ZJQWxHYzFiUmlyQi03d0tsZ1NkZUczRU1xeW5QSHhlUGVPLUY1LUJvTEM1LV92Z1Q0SUFSbjh0cncxM2I1OXJQUkJpSlN2YWRyZWxjQXB4YnNBQWJ4R3VrTkdlWHo0ZlgyNU05Yk56MWthTk5DLTh5Z0VkS3lvR05fT1hZaW05SmZHemZhOWxRdGJaa1lldHAyM1g0cFFnYUlnc2ZVdDFqUHAzUW1mWGkyRnIydEx6X3Z6emF6NFRsMzRFd1lLUWNLWU1BaUpqN2tCcWtQRWhNSXItZEVaR1VpTnZXN216UzFnOEg4ZFR2RGR4VTdtMDBdLS0+PC9nPjwvc3ZnPg==;" vertex="1" parent="1">
            <mxGeometry x="27" y="270" width="796" height="612" as="geometry" />
          </mxCell>
        </UserObject>
        <UserObject label="" plantUmlData="{&#xa;  &quot;data&quot;: &quot;@startuml\nstart\n\npartition \&quot;Student\&quot; {\n  :Browse Events;\n  :Select Seats;\n}\n\npartition \&quot;System\&quot; {\n  :Check Seat Availability;\n}\n\nif (Seats Available?) then (Yes)\n  partition \&quot;Student\&quot; {\n    :Enter Payment Details;\n  }\n  partition \&quot;Payment Gateway\&quot; {\n    :Process Payment;\n  }\n  fork\n    partition \&quot;System\&quot; {\n      :Confirm Booking;\n      :Update Database;\n    }\n  fork again\n    partition \&quot;Notification Service\&quot; {\n      :Send Confirmation Email/SMS;\n    }\n  end fork\n  :Display Confirmation;\nelse (No)\n  partition \&quot;Student\&quot; {\n    :Join Waitlist;\n  }\n  partition \&quot;System\&quot; {\n    :Notify When Available;\n  }\nendif\n\nstop\n@enduml&quot;,&#xa;  &quot;format&quot;: &quot;svg&quot;&#xa;}" id="HTzx3mXwLKjGqoxVnwJw-6">
          <mxCell style="shape=image;noLabel=1;verticalAlign=top;aspect=fixed;imageAspect=0;image=data:image/svg+xml,PHN2ZyB4bWxucz0iaHR0cDovL3d3dy53My5vcmcvMjAwMC9zdmciIHhtbG5zOnhsaW5rPSJodHRwOi8vd3d3LnczLm9yZy8xOTk5L3hsaW5rIiBjb250ZW50U3R5bGVUeXBlPSJ0ZXh0L2NzcyIgZGF0YS1kaWFncmFtLXR5cGU9IkFDVElWSVRZIiBoZWlnaHQ9IjgzMXB4IiBwcmVzZXJ2ZUFzcGVjdFJhdGlvPSJub25lIiBzdHlsZT0id2lkdGg6NTk0cHg7aGVpZ2h0OjgzMXB4O2JhY2tncm91bmQ6I0ZGRkZGRjsiIHZlcnNpb249IjEuMSIgdmlld0JveD0iMCAwIDU5NCA4MzEiIHdpZHRoPSI1OTRweCIgem9vbUFuZFBhbj0ibWFnbmlmeSI+PGRlZnMvPjxnPjxlbGxpcHNlIGN4PSIzNTEuNSIgY3k9IjIwIiBmaWxsPSIjMjIyMjIyIiByeD0iMTAiIHJ5PSIxMCIgc3R5bGU9InN0cm9rZTojMjIyMjIyO3N0cm9rZS13aWR0aDoxOyIvPjxyZWN0IGZpbGw9Im5vbmUiIGhlaWdodD0iMTMyLjY3MTkiIHN0eWxlPSJzdHJva2U6IzAwMDAwMDtzdHJva2Utd2lkdGg6MS41OyIgd2lkdGg9IjExOCIgeD0iMjkyLjUiIHk9IjQwIi8+PHBhdGggZD0iTTM1MS41LDQwIEwzNTEuNSw0Ny45ODQ0IEwzNDEuNSw1Ny45ODQ0IEwyOTIuNSw1Ny45ODQ0IiBmaWxsPSJub25lIiBzdHlsZT0ic3Ryb2tlOiMwMDAwMDA7c3Ryb2tlLXdpZHRoOjEuNTsiLz48dGV4dCBmaWxsPSIjMDAwMDAwIiBmb250LWZhbWlseT0ic2Fucy1zZXJpZiIgZm9udC1zaXplPSIxNCIgbGVuZ3RoQWRqdXN0PSJzcGFjaW5nIiB0ZXh0TGVuZ3RoPSI0OSIgeD0iMjk1LjUiIHk9IjU0LjIzNDQiPlN0dWRlbnQ8L3RleHQ+PHJlY3QgZmlsbD0iI0YxRjFGMSIgaGVpZ2h0PSIzMi44NDM4IiByeD0iMTIuNSIgcnk9IjEyLjUiIHN0eWxlPSJzdHJva2U6IzE4MTgxODtzdHJva2Utd2lkdGg6MC41OyIgd2lkdGg9Ijk4IiB4PSIzMDIuNSIgeT0iNzQuOTg0NCIvPjx0ZXh0IGZpbGw9IiMwMDAwMDAiIGZvbnQtZmFtaWx5PSJzYW5zLXNlcmlmIiBmb250LXNpemU9IjEyIiBsZW5ndGhBZGp1c3Q9InNwYWNpbmciIHRleHRMZW5ndGg9Ijc4IiB4PSIzMTIuNSIgeT0iOTYuMzI4MSI+QnJvd3NlIEV2ZW50czwvdGV4dD48cmVjdCBmaWxsPSIjRjFGMUYxIiBoZWlnaHQ9IjMyLjg0MzgiIHJ4PSIxMi41IiByeT0iMTIuNSIgc3R5bGU9InN0cm9rZTojMTgxODE4O3N0cm9rZS13aWR0aDowLjU7IiB3aWR0aD0iOTIiIHg9IjMwNS41IiB5PSIxMjcuODI4MSIvPjx0ZXh0IGZpbGw9IiMwMDAwMDAiIGZvbnQtZmFtaWx5PSJzYW5zLXNlcmlmIiBmb250LXNpemU9IjEyIiBsZW5ndGhBZGp1c3Q9InNwYWNpbmciIHRleHRMZW5ndGg9IjcyIiB4PSIzMTUuNSIgeT0iMTQ5LjE3MTkiPlNlbGVjdCBTZWF0czwvdGV4dD48cmVjdCBmaWxsPSJub25lIiBoZWlnaHQ9Ijc5LjgyODEiIHN0eWxlPSJzdHJva2U6IzAwMDAwMDtzdHJva2Utd2lkdGg6MS41OyIgd2lkdGg9IjE3OCIgeD0iMjYyLjUiIHk9IjE4Mi42NzE5Ii8+PHBhdGggZD0iTTMxNC41LDE4Mi42NzE5IEwzMTQuNSwxOTAuNjU2MyBMMzA0LjUsMjAwLjY1NjMgTDI2Mi41LDIwMC42NTYzIiBmaWxsPSJub25lIiBzdHlsZT0ic3Ryb2tlOiMwMDAwMDA7c3Ryb2tlLXdpZHRoOjEuNTsiLz48dGV4dCBmaWxsPSIjMDAwMDAwIiBmb250LWZhbWlseT0ic2Fucy1zZXJpZiIgZm9udC1zaXplPSIxNCIgbGVuZ3RoQWRqdXN0PSJzcGFjaW5nIiB0ZXh0TGVuZ3RoPSI0MiIgeD0iMjY1LjUiIHk9IjE5Ni45MDYzIj5TeXN0ZW08L3RleHQ+PHJlY3QgZmlsbD0iI0YxRjFGMSIgaGVpZ2h0PSIzMi44NDM4IiByeD0iMTIuNSIgcnk9IjEyLjUiIHN0eWxlPSJzdHJva2U6IzE4MTgxODtzdHJva2Utd2lkdGg6MC41OyIgd2lkdGg9IjE1OCIgeD0iMjcyLjUiIHk9IjIxNy42NTYzIi8+PHRleHQgZmlsbD0iIzAwMDAwMCIgZm9udC1mYW1pbHk9InNhbnMtc2VyaWYiIGZvbnQtc2l6ZT0iMTIiIGxlbmd0aEFkanVzdD0ic3BhY2luZyIgdGV4dExlbmd0aD0iMTM4IiB4PSIyODIuNSIgeT0iMjM5Ij5DaGVjayBTZWF0IEF2YWlsYWJpbGl0eTwvdGV4dD48cG9seWdvbiBmaWxsPSIjRjFGMUYxIiBwb2ludHM9IjMwNy41LDI4Mi41LDM5NS41LDI4Mi41LDQwNy41LDI5NC41LDM5NS41LDMwNi41LDMwNy41LDMwNi41LDI5NS41LDI5NC41LDMwNy41LDI4Mi41IiBzdHlsZT0ic3Ryb2tlOiMxODE4MTg7c3Ryb2tlLXdpZHRoOjAuNTsiLz48dGV4dCBmaWxsPSIjMDAwMDAwIiBmb250LWZhbWlseT0ic2Fucy1zZXJpZiIgZm9udC1zaXplPSIxMSIgbGVuZ3RoQWRqdXN0PSJzcGFjaW5nIiB0ZXh0TGVuZ3RoPSI4OCIgeD0iMzA3LjUiIHk9IjI5OS4wMTE3Ij5TZWF0cyBBdmFpbGFibGU/PC90ZXh0Pjx0ZXh0IGZpbGw9IiMwMDAwMDAiIGZvbnQtZmFtaWx5PSJzYW5zLXNlcmlmIiBmb250LXNpemU9IjExIiBsZW5ndGhBZGp1c3Q9InNwYWNpbmciIHRleHRMZW5ndGg9IjE2LjUiIHg9IjI3OSIgeT0iMjkzLjEyNSI+WWVzPC90ZXh0Pjx0ZXh0IGZpbGw9IiMwMDAwMDAiIGZvbnQtZmFtaWx5PSJzYW5zLXNlcmlmIiBmb250LXNpemU9IjExIiBsZW5ndGhBZGp1c3Q9InNwYWNpbmciIHRleHRMZW5ndGg9IjExIiB4PSI0MDcuNSIgeT0iMjkzLjEyNSI+Tm88L3RleHQ+PHJlY3QgZmlsbD0ibm9uZSIgaGVpZ2h0PSI3OS44MjgxIiBzdHlsZT0ic3Ryb2tlOiMwMDAwMDA7c3Ryb2tlLXdpZHRoOjEuNTsiIHdpZHRoPSIxNjYiIHg9IjEyMCIgeT0iMzE2LjUiLz48cGF0aCBkPSJNMTc5LDMxNi41IEwxNzksMzI0LjQ4NDQgTDE2OSwzMzQuNDg0NCBMMTIwLDMzNC40ODQ0IiBmaWxsPSJub25lIiBzdHlsZT0ic3Ryb2tlOiMwMDAwMDA7c3Ryb2tlLXdpZHRoOjEuNTsiLz48dGV4dCBmaWxsPSIjMDAwMDAwIiBmb250LWZhbWlseT0ic2Fucy1zZXJpZiIgZm9udC1zaXplPSIxNCIgbGVuZ3RoQWRqdXN0PSJzcGFjaW5nIiB0ZXh0TGVuZ3RoPSI0OSIgeD0iMTIzIiB5PSIzMzAuNzM0NCI+U3R1ZGVudDwvdGV4dD48cmVjdCBmaWxsPSIjRjFGMUYxIiBoZWlnaHQ9IjMyLjg0MzgiIHJ4PSIxMi41IiByeT0iMTIuNSIgc3R5bGU9InN0cm9rZTojMTgxODE4O3N0cm9rZS13aWR0aDowLjU7IiB3aWR0aD0iMTQ2IiB4PSIxMzAiIHk9IjM1MS40ODQ0Ii8+PHRleHQgZmlsbD0iIzAwMDAwMCIgZm9udC1mYW1pbHk9InNhbnMtc2VyaWYiIGZvbnQtc2l6ZT0iMTIiIGxlbmd0aEFkanVzdD0ic3BhY2luZyIgdGV4dExlbmd0aD0iMTI2IiB4PSIxNDAiIHk9IjM3Mi44MjgxIj5FbnRlciBQYXltZW50IERldGFpbHM8L3RleHQ+PHJlY3QgZmlsbD0ibm9uZSIgaGVpZ2h0PSI3OS44MjgxIiBzdHlsZT0ic3Ryb2tlOiMwMDAwMDA7c3Ryb2tlLXdpZHRoOjEuNTsiIHdpZHRoPSIxMzAiIHg9IjEzOCIgeT0iNDA2LjMyODEiLz48cGF0aCBkPSJNMjUzLDQwNi4zMjgxIEwyNTMsNDE0LjMxMjUgTDI0Myw0MjQuMzEyNSBMMTM4LDQyNC4zMTI1IiBmaWxsPSJub25lIiBzdHlsZT0ic3Ryb2tlOiMwMDAwMDA7c3Ryb2tlLXdpZHRoOjEuNTsiLz48dGV4dCBmaWxsPSIjMDAwMDAwIiBmb250LWZhbWlseT0ic2Fucy1zZXJpZiIgZm9udC1zaXplPSIxNCIgbGVuZ3RoQWRqdXN0PSJzcGFjaW5nIiB0ZXh0TGVuZ3RoPSIxMDUiIHg9IjE0MSIgeT0iNDIwLjU2MjUiPlBheW1lbnQgR2F0ZXdheTwvdGV4dD48cmVjdCBmaWxsPSIjRjFGMUYxIiBoZWlnaHQ9IjMyLjg0MzgiIHJ4PSIxMi41IiByeT0iMTIuNSIgc3R5bGU9InN0cm9rZTojMTgxODE4O3N0cm9rZS13aWR0aDowLjU7IiB3aWR0aD0iMTEwIiB4PSIxNDgiIHk9IjQ0MS4zMTI1Ii8+PHRleHQgZmlsbD0iIzAwMDAwMCIgZm9udC1mYW1pbHk9InNhbnMtc2VyaWYiIGZvbnQtc2l6ZT0iMTIiIGxlbmd0aEFkanVzdD0ic3BhY2luZyIgdGV4dExlbmd0aD0iOTAiIHg9IjE1OCIgeT0iNDYyLjY1NjMiPlByb2Nlc3MgUGF5bWVudDwvdGV4dD48cmVjdCBmaWxsPSIjNTU1NTU1IiBoZWlnaHQ9IjYiIHJ4PSIyLjUiIHJ5PSIyLjUiIHN0eWxlPSJzdHJva2U6IzU1NTU1NTtzdHJva2Utd2lkdGg6MTsiIHdpZHRoPSIzODYiIHg9IjExIiB5PSI1MDYuMTU2MyIvPjxyZWN0IGZpbGw9Im5vbmUiIGhlaWdodD0iMTQ3LjY3MTkiIHN0eWxlPSJzdHJva2U6IzAwMDAwMDtzdHJva2Utd2lkdGg6MS41OyIgd2lkdGg9IjEzMCIgeD0iMjMiIHk9IjUyMi4xNTYzIi8+PHBhdGggZD0iTTc1LDUyMi4xNTYzIEw3NSw1MzAuMTQwNiBMNjUsNTQwLjE0MDYgTDIzLDU0MC4xNDA2IiBmaWxsPSJub25lIiBzdHlsZT0ic3Ryb2tlOiMwMDAwMDA7c3Ryb2tlLXdpZHRoOjEuNTsiLz48dGV4dCBmaWxsPSIjMDAwMDAwIiBmb250LWZhbWlseT0ic2Fucy1zZXJpZiIgZm9udC1zaXplPSIxNCIgbGVuZ3RoQWRqdXN0PSJzcGFjaW5nIiB0ZXh0TGVuZ3RoPSI0MiIgeD0iMjYiIHk9IjUzNi4zOTA2Ij5TeXN0ZW08L3RleHQ+PHJlY3QgZmlsbD0iI0YxRjFGMSIgaGVpZ2h0PSIzMi44NDM4IiByeD0iMTIuNSIgcnk9IjEyLjUiIHN0eWxlPSJzdHJva2U6IzE4MTgxODtzdHJva2Utd2lkdGg6MC41OyIgd2lkdGg9IjExMCIgeD0iMzMiIHk9IjU1Ny4xNDA2Ii8+PHRleHQgZmlsbD0iIzAwMDAwMCIgZm9udC1mYW1pbHk9InNhbnMtc2VyaWYiIGZvbnQtc2l6ZT0iMTIiIGxlbmd0aEFkanVzdD0ic3BhY2luZyIgdGV4dExlbmd0aD0iOTAiIHg9IjQzIiB5PSI1NzguNDg0NCI+Q29uZmlybSBCb29raW5nPC90ZXh0PjxyZWN0IGZpbGw9IiNGMUYxRjEiIGhlaWdodD0iMzIuODQzOCIgcng9IjEyLjUiIHJ5PSIxMi41IiBzdHlsZT0ic3Ryb2tlOiMxODE4MTg7c3Ryb2tlLXdpZHRoOjAuNTsiIHdpZHRoPSIxMTAiIHg9IjMzIiB5PSI2MjQuOTg0NCIvPjx0ZXh0IGZpbGw9IiMwMDAwMDAiIGZvbnQtZmFtaWx5PSJzYW5zLXNlcmlmIiBmb250LXNpemU9IjEyIiBsZW5ndGhBZGp1c3Q9InNwYWNpbmciIHRleHRMZW5ndGg9IjkwIiB4PSI0MyIgeT0iNjQ2LjMyODEiPlVwZGF0ZSBEYXRhYmFzZTwvdGV4dD48cmVjdCBmaWxsPSJub25lIiBoZWlnaHQ9Ijg3LjgyODEiIHN0eWxlPSJzdHJva2U6IzAwMDAwMDtzdHJva2Utd2lkdGg6MS41OyIgd2lkdGg9IjIwMiIgeD0iMTgxIiB5PSI1NTYuMDc4MSIvPjxwYXRoIGQ9Ik0zMzEsNTU2LjA3ODEgTDMzMSw1NjQuMDYyNSBMMzIxLDU3NC4wNjI1IEwxODEsNTc0LjA2MjUiIGZpbGw9Im5vbmUiIHN0eWxlPSJzdHJva2U6IzAwMDAwMDtzdHJva2Utd2lkdGg6MS41OyIvPjx0ZXh0IGZpbGw9IiMwMDAwMDAiIGZvbnQtZmFtaWx5PSJzYW5zLXNlcmlmIiBmb250LXNpemU9IjE0IiBsZW5ndGhBZGp1c3Q9InNwYWNpbmciIHRleHRMZW5ndGg9IjE0MCIgeD0iMTg0IiB5PSI1NzAuMzEyNSI+Tm90aWZpY2F0aW9uIFNlcnZpY2U8L3RleHQ+PHJlY3QgZmlsbD0iI0YxRjFGMSIgaGVpZ2h0PSIzMi44NDM4IiByeD0iMTIuNSIgcnk9IjEyLjUiIHN0eWxlPSJzdHJva2U6IzE4MTgxODtzdHJva2Utd2lkdGg6MC41OyIgd2lkdGg9IjE4MiIgeD0iMTkxIiB5PSI1OTEuMDYyNSIvPjx0ZXh0IGZpbGw9IiMwMDAwMDAiIGZvbnQtZmFtaWx5PSJzYW5zLXNlcmlmIiBmb250LXNpemU9IjEyIiBsZW5ndGhBZGp1c3Q9InNwYWNpbmciIHRleHRMZW5ndGg9IjE2MiIgeD0iMjAxIiB5PSI2MTIuNDA2MyI+U2VuZCBDb25maXJtYXRpb24gRW1haWwvU01TPC90ZXh0PjxyZWN0IGZpbGw9IiM1NTU1NTUiIGhlaWdodD0iNiIgcng9IjIuNSIgcnk9IjIuNSIgc3R5bGU9InN0cm9rZTojNTU1NTU1O3N0cm9rZS13aWR0aDoxOyIgd2lkdGg9IjM4NiIgeD0iMTEiIHk9IjY4OS44MjgxIi8+PHJlY3QgZmlsbD0iI0YxRjFGMSIgaGVpZ2h0PSIzMi44NDM4IiByeD0iMTIuNSIgcnk9IjEyLjUiIHN0eWxlPSJzdHJva2U6IzE4MTgxODtzdHJva2Utd2lkdGg6MC41OyIgd2lkdGg9IjE0MCIgeD0iMTMzIiB5PSI3MTUuODI4MSIvPjx0ZXh0IGZpbGw9IiMwMDAwMDAiIGZvbnQtZmFtaWx5PSJzYW5zLXNlcmlmIiBmb250LXNpemU9IjEyIiBsZW5ndGhBZGp1c3Q9InNwYWNpbmciIHRleHRMZW5ndGg9IjEyMCIgeD0iMTQzIiB5PSI3MzcuMTcxOSI+RGlzcGxheSBDb25maXJtYXRpb248L3RleHQ+PHJlY3QgZmlsbD0ibm9uZSIgaGVpZ2h0PSI3OS44MjgxIiBzdHlsZT0ic3Ryb2tlOiMwMDAwMDA7c3Ryb2tlLXdpZHRoOjEuNTsiIHdpZHRoPSIxMTgiIHg9IjQ0MSIgeT0iMzE2LjUiLz48cGF0aCBkPSJNNTAwLDMxNi41IEw1MDAsMzI0LjQ4NDQgTDQ5MCwzMzQuNDg0NCBMNDQxLDMzNC40ODQ0IiBmaWxsPSJub25lIiBzdHlsZT0ic3Ryb2tlOiMwMDAwMDA7c3Ryb2tlLXdpZHRoOjEuNTsiLz48dGV4dCBmaWxsPSIjMDAwMDAwIiBmb250LWZhbWlseT0ic2Fucy1zZXJpZiIgZm9udC1zaXplPSIxNCIgbGVuZ3RoQWRqdXN0PSJzcGFjaW5nIiB0ZXh0TGVuZ3RoPSI0OSIgeD0iNDQ0IiB5PSIzMzAuNzM0NCI+U3R1ZGVudDwvdGV4dD48cmVjdCBmaWxsPSIjRjFGMUYxIiBoZWlnaHQ9IjMyLjg0MzgiIHJ4PSIxMi41IiByeT0iMTIuNSIgc3R5bGU9InN0cm9rZTojMTgxODE4O3N0cm9rZS13aWR0aDowLjU7IiB3aWR0aD0iOTgiIHg9IjQ1MSIgeT0iMzUxLjQ4NDQiLz48dGV4dCBmaWxsPSIjMDAwMDAwIiBmb250LWZhbWlseT0ic2Fucy1zZXJpZiIgZm9udC1zaXplPSIxMiIgbGVuZ3RoQWRqdXN0PSJzcGFjaW5nIiB0ZXh0TGVuZ3RoPSI3OCIgeD0iNDYxIiB5PSIzNzIuODI4MSI+Sm9pbiBXYWl0bGlzdDwvdGV4dD48cmVjdCBmaWxsPSJub25lIiBoZWlnaHQ9Ijc5LjgyODEiIHN0eWxlPSJzdHJva2U6IzAwMDAwMDtzdHJva2Utd2lkdGg6MS41OyIgd2lkdGg9IjE2NiIgeD0iNDE3IiB5PSI0MDYuMzI4MSIvPjxwYXRoIGQ9Ik00NjksNDA2LjMyODEgTDQ2OSw0MTQuMzEyNSBMNDU5LDQyNC4zMTI1IEw0MTcsNDI0LjMxMjUiIGZpbGw9Im5vbmUiIHN0eWxlPSJzdHJva2U6IzAwMDAwMDtzdHJva2Utd2lkdGg6MS41OyIvPjx0ZXh0IGZpbGw9IiMwMDAwMDAiIGZvbnQtZmFtaWx5PSJzYW5zLXNlcmlmIiBmb250LXNpemU9IjE0IiBsZW5ndGhBZGp1c3Q9InNwYWNpbmciIHRleHRMZW5ndGg9IjQyIiB4PSI0MjAiIHk9IjQyMC41NjI1Ij5TeXN0ZW08L3RleHQ+PHJlY3QgZmlsbD0iI0YxRjFGMSIgaGVpZ2h0PSIzMi44NDM4IiByeD0iMTIuNSIgcnk9IjEyLjUiIHN0eWxlPSJzdHJva2U6IzE4MTgxODtzdHJva2Utd2lkdGg6MC41OyIgd2lkdGg9IjE0NiIgeD0iNDI3IiB5PSI0NDEuMzEyNSIvPjx0ZXh0IGZpbGw9IiMwMDAwMDAiIGZvbnQtZmFtaWx5PSJzYW5zLXNlcmlmIiBmb250LXNpemU9IjEyIiBsZW5ndGhBZGp1c3Q9InNwYWNpbmciIHRleHRMZW5ndGg9IjEyNiIgeD0iNDM3IiB5PSI0NjIuNjU2MyI+Tm90aWZ5IFdoZW4gQXZhaWxhYmxlPC90ZXh0Pjxwb2x5Z29uIGZpbGw9IiNGMUYxRjEiIHBvaW50cz0iMzUxLjUsNzU0LjY3MTksMzYzLjUsNzY2LjY3MTksMzUxLjUsNzc4LjY3MTksMzM5LjUsNzY2LjY3MTksMzUxLjUsNzU0LjY3MTkiIHN0eWxlPSJzdHJva2U6IzE4MTgxODtzdHJva2Utd2lkdGg6MC41OyIvPjxlbGxpcHNlIGN4PSIzNTEuNSIgY3k9IjgwOS42NzE5IiBmaWxsPSJub25lIiByeD0iMTEiIHJ5PSIxMSIgc3R5bGU9InN0cm9rZTojMjIyMjIyO3N0cm9rZS13aWR0aDoxOyIvPjxlbGxpcHNlIGN4PSIzNTEuNSIgY3k9IjgwOS42NzE5IiBmaWxsPSIjMjIyMjIyIiByeD0iNiIgcnk9IjYiIHN0eWxlPSJzdHJva2U6IzIyMjIyMjtzdHJva2Utd2lkdGg6MTsiLz48bGluZSBzdHlsZT0ic3Ryb2tlOiMxODE4MTg7c3Ryb2tlLXdpZHRoOjE7IiB4MT0iMzUxLjUiIHgyPSIzNTEuNSIgeTE9IjEwNy44MjgxIiB5Mj0iMTI3LjgyODEiLz48cG9seWdvbiBmaWxsPSIjMTgxODE4IiBwb2ludHM9IjM0Ny41LDExNy44MjgxLDM1MS41LDEyNy44MjgxLDM1NS41LDExNy44MjgxLDM1MS41LDEyMS44MjgxIiBzdHlsZT0ic3Ryb2tlOiMxODE4MTg7c3Ryb2tlLXdpZHRoOjE7Ii8+PGxpbmUgc3R5bGU9InN0cm9rZTojMTgxODE4O3N0cm9rZS13aWR0aDoxOyIgeDE9IjM1MS41IiB4Mj0iMzUxLjUiIHkxPSIzMCIgeTI9Ijc0Ljk4NDQiLz48cG9seWdvbiBmaWxsPSIjMTgxODE4IiBwb2ludHM9IjM0Ny41LDY0Ljk4NDQsMzUxLjUsNzQuOTg0NCwzNTUuNSw2NC45ODQ0LDM1MS41LDY4Ljk4NDQiIHN0eWxlPSJzdHJva2U6IzE4MTgxODtzdHJva2Utd2lkdGg6MTsiLz48bGluZSBzdHlsZT0ic3Ryb2tlOiMxODE4MTg7c3Ryb2tlLXdpZHRoOjE7IiB4MT0iMzUxLjUiIHgyPSIzNTEuNSIgeTE9IjE2MC42NzE5IiB5Mj0iMjE3LjY1NjMiLz48cG9seWdvbiBmaWxsPSIjMTgxODE4IiBwb2ludHM9IjM0Ny41LDIwNy42NTYzLDM1MS41LDIxNy42NTYzLDM1NS41LDIwNy42NTYzLDM1MS41LDIxMS42NTYzIiBzdHlsZT0ic3Ryb2tlOiMxODE4MTg7c3Ryb2tlLXdpZHRoOjE7Ii8+PGxpbmUgc3R5bGU9InN0cm9rZTojMTgxODE4O3N0cm9rZS13aWR0aDoxOyIgeDE9IjIwMyIgeDI9IjIwMyIgeTE9IjM4NC4zMjgxIiB5Mj0iNDQxLjMxMjUiLz48cG9seWdvbiBmaWxsPSIjMTgxODE4IiBwb2ludHM9IjE5OSw0MzEuMzEyNSwyMDMsNDQxLjMxMjUsMjA3LDQzMS4zMTI1LDIwMyw0MzUuMzEyNSIgc3R5bGU9InN0cm9rZTojMTgxODE4O3N0cm9rZS13aWR0aDoxOyIvPjxsaW5lIHN0eWxlPSJzdHJva2U6IzE4MTgxODtzdHJva2Utd2lkdGg6MTsiIHgxPSI4OCIgeDI9Ijg4IiB5MT0iNTg5Ljk4NDQiIHkyPSI2MjQuOTg0NCIvPjxwb2x5Z29uIGZpbGw9IiMxODE4MTgiIHBvaW50cz0iODQsNjE0Ljk4NDQsODgsNjI0Ljk4NDQsOTIsNjE0Ljk4NDQsODgsNjE4Ljk4NDQiIHN0eWxlPSJzdHJva2U6IzE4MTgxODtzdHJva2Utd2lkdGg6MTsiLz48bGluZSBzdHlsZT0ic3Ryb2tlOiMxODE4MTg7c3Ryb2tlLXdpZHRoOjE7IiB4MT0iODgiIHgyPSI4OCIgeTE9IjUxMi4xNTYzIiB5Mj0iNTU3LjE0MDYiLz48cG9seWdvbiBmaWxsPSIjMTgxODE4IiBwb2ludHM9Ijg0LDU0Ny4xNDA2LDg4LDU1Ny4xNDA2LDkyLDU0Ny4xNDA2LDg4LDU1MS4xNDA2IiBzdHlsZT0ic3Ryb2tlOiMxODE4MTg7c3Ryb2tlLXdpZHRoOjE7Ii8+PGxpbmUgc3R5bGU9InN0cm9rZTojMTgxODE4O3N0cm9rZS13aWR0aDoxOyIgeDE9IjI4MiIgeDI9IjI4MiIgeTE9IjUxMi4xNTYzIiB5Mj0iNTkxLjA2MjUiLz48cG9seWdvbiBmaWxsPSIjMTgxODE4IiBwb2ludHM9IjI3OCw1ODEuMDYyNSwyODIsNTkxLjA2MjUsMjg2LDU4MS4wNjI1LDI4Miw1ODUuMDYyNSIgc3R5bGU9InN0cm9rZTojMTgxODE4O3N0cm9rZS13aWR0aDoxOyIvPjxsaW5lIHN0eWxlPSJzdHJva2U6IzE4MTgxODtzdHJva2Utd2lkdGg6MTsiIHgxPSI4OCIgeDI9Ijg4IiB5MT0iNjU3LjgyODEiIHkyPSI2ODkuODI4MSIvPjxwb2x5Z29uIGZpbGw9IiMxODE4MTgiIHBvaW50cz0iODQsNjc5LjgyODEsODgsNjg5LjgyODEsOTIsNjc5LjgyODEsODgsNjgzLjgyODEiIHN0eWxlPSJzdHJva2U6IzE4MTgxODtzdHJva2Utd2lkdGg6MTsiLz48bGluZSBzdHlsZT0ic3Ryb2tlOiMxODE4MTg7c3Ryb2tlLXdpZHRoOjE7IiB4MT0iMjgyIiB4Mj0iMjgyIiB5MT0iNjIzLjkwNjMiIHkyPSI2ODkuODI4MSIvPjxwb2x5Z29uIGZpbGw9IiMxODE4MTgiIHBvaW50cz0iMjc4LDY3OS44MjgxLDI4Miw2ODkuODI4MSwyODYsNjc5LjgyODEsMjgyLDY4My44MjgxIiBzdHlsZT0ic3Ryb2tlOiMxODE4MTg7c3Ryb2tlLXdpZHRoOjE7Ii8+PGxpbmUgc3R5bGU9InN0cm9rZTojMTgxODE4O3N0cm9rZS13aWR0aDoxOyIgeDE9IjIwMyIgeDI9IjIwMyIgeTE9IjQ3NC4xNTYzIiB5Mj0iNTA2LjE1NjMiLz48cG9seWdvbiBmaWxsPSIjMTgxODE4IiBwb2ludHM9IjE5OSw0OTYuMTU2MywyMDMsNTA2LjE1NjMsMjA3LDQ5Ni4xNTYzLDIwMyw1MDAuMTU2MyIgc3R5bGU9InN0cm9rZTojMTgxODE4O3N0cm9rZS13aWR0aDoxOyIvPjxsaW5lIHN0eWxlPSJzdHJva2U6IzE4MTgxODtzdHJva2Utd2lkdGg6MTsiIHgxPSIyMDMiIHgyPSIyMDMiIHkxPSI2OTUuODI4MSIgeTI9IjcxNS44MjgxIi8+PHBvbHlnb24gZmlsbD0iIzE4MTgxOCIgcG9pbnRzPSIxOTksNzA1LjgyODEsMjAzLDcxNS44MjgxLDIwNyw3MDUuODI4MSwyMDMsNzA5LjgyODEiIHN0eWxlPSJzdHJva2U6IzE4MTgxODtzdHJva2Utd2lkdGg6MTsiLz48bGluZSBzdHlsZT0ic3Ryb2tlOiMxODE4MTg7c3Ryb2tlLXdpZHRoOjE7IiB4MT0iNTAwIiB4Mj0iNTAwIiB5MT0iMzg0LjMyODEiIHkyPSI0NDEuMzEyNSIvPjxwb2x5Z29uIGZpbGw9IiMxODE4MTgiIHBvaW50cz0iNDk2LDQzMS4zMTI1LDUwMCw0NDEuMzEyNSw1MDQsNDMxLjMxMjUsNTAwLDQzNS4zMTI1IiBzdHlsZT0ic3Ryb2tlOiMxODE4MTg7c3Ryb2tlLXdpZHRoOjE7Ii8+PGxpbmUgc3R5bGU9InN0cm9rZTojMTgxODE4O3N0cm9rZS13aWR0aDoxOyIgeDE9IjI5NS41IiB4Mj0iMjAzIiB5MT0iMjk0LjUiIHkyPSIyOTQuNSIvPjxsaW5lIHN0eWxlPSJzdHJva2U6IzE4MTgxODtzdHJva2Utd2lkdGg6MTsiIHgxPSIyMDMiIHgyPSIyMDMiIHkxPSIyOTQuNSIgeTI9IjM1MS40ODQ0Ii8+PHBvbHlnb24gZmlsbD0iIzE4MTgxOCIgcG9pbnRzPSIxOTksMzQxLjQ4NDQsMjAzLDM1MS40ODQ0LDIwNywzNDEuNDg0NCwyMDMsMzQ1LjQ4NDQiIHN0eWxlPSJzdHJva2U6IzE4MTgxODtzdHJva2Utd2lkdGg6MTsiLz48bGluZSBzdHlsZT0ic3Ryb2tlOiMxODE4MTg7c3Ryb2tlLXdpZHRoOjE7IiB4MT0iNDA3LjUiIHgyPSI1MDAiIHkxPSIyOTQuNSIgeTI9IjI5NC41Ii8+PGxpbmUgc3R5bGU9InN0cm9rZTojMTgxODE4O3N0cm9rZS13aWR0aDoxOyIgeDE9IjUwMCIgeDI9IjUwMCIgeTE9IjI5NC41IiB5Mj0iMzUxLjQ4NDQiLz48cG9seWdvbiBmaWxsPSIjMTgxODE4IiBwb2ludHM9IjQ5NiwzNDEuNDg0NCw1MDAsMzUxLjQ4NDQsNTA0LDM0MS40ODQ0LDUwMCwzNDUuNDg0NCIgc3R5bGU9InN0cm9rZTojMTgxODE4O3N0cm9rZS13aWR0aDoxOyIvPjxsaW5lIHN0eWxlPSJzdHJva2U6IzE4MTgxODtzdHJva2Utd2lkdGg6MTsiIHgxPSIyMDMiIHgyPSIyMDMiIHkxPSI3NDguNjcxOSIgeTI9Ijc2Ni42NzE5Ii8+PGxpbmUgc3R5bGU9InN0cm9rZTojMTgxODE4O3N0cm9rZS13aWR0aDoxOyIgeDE9IjIwMyIgeDI9IjMzOS41IiB5MT0iNzY2LjY3MTkiIHkyPSI3NjYuNjcxOSIvPjxwb2x5Z29uIGZpbGw9IiMxODE4MTgiIHBvaW50cz0iMzI5LjUsNzYyLjY3MTksMzM5LjUsNzY2LjY3MTksMzI5LjUsNzcwLjY3MTksMzMzLjUsNzY2LjY3MTkiIHN0eWxlPSJzdHJva2U6IzE4MTgxODtzdHJva2Utd2lkdGg6MTsiLz48bGluZSBzdHlsZT0ic3Ryb2tlOiMxODE4MTg7c3Ryb2tlLXdpZHRoOjE7IiB4MT0iNTAwIiB4Mj0iNTAwIiB5MT0iNDc0LjE1NjMiIHkyPSI3NjYuNjcxOSIvPjxsaW5lIHN0eWxlPSJzdHJva2U6IzE4MTgxODtzdHJva2Utd2lkdGg6MTsiIHgxPSI1MDAiIHgyPSIzNjMuNSIgeTE9Ijc2Ni42NzE5IiB5Mj0iNzY2LjY3MTkiLz48cG9seWdvbiBmaWxsPSIjMTgxODE4IiBwb2ludHM9IjM3My41LDc2Mi42NzE5LDM2My41LDc2Ni42NzE5LDM3My41LDc3MC42NzE5LDM2OS41LDc2Ni42NzE5IiBzdHlsZT0ic3Ryb2tlOiMxODE4MTg7c3Ryb2tlLXdpZHRoOjE7Ii8+PGxpbmUgc3R5bGU9InN0cm9rZTojMTgxODE4O3N0cm9rZS13aWR0aDoxOyIgeDE9IjM1MS41IiB4Mj0iMzUxLjUiIHkxPSIyNTAuNSIgeTI9IjI4Mi41Ii8+PHBvbHlnb24gZmlsbD0iIzE4MTgxOCIgcG9pbnRzPSIzNDcuNSwyNzIuNSwzNTEuNSwyODIuNSwzNTUuNSwyNzIuNSwzNTEuNSwyNzYuNSIgc3R5bGU9InN0cm9rZTojMTgxODE4O3N0cm9rZS13aWR0aDoxOyIvPjxsaW5lIHN0eWxlPSJzdHJva2U6IzE4MTgxODtzdHJva2Utd2lkdGg6MTsiIHgxPSIzNTEuNSIgeDI9IjM1MS41IiB5MT0iNzc4LjY3MTkiIHkyPSI3OTguNjcxOSIvPjxwb2x5Z29uIGZpbGw9IiMxODE4MTgiIHBvaW50cz0iMzQ3LjUsNzg4LjY3MTksMzUxLjUsNzk4LjY3MTksMzU1LjUsNzg4LjY3MTksMzUxLjUsNzkyLjY3MTkiIHN0eWxlPSJzdHJva2U6IzE4MTgxODtzdHJva2Utd2lkdGg6MTsiLz48IS0tU1JDPVtYUDUxUXlDbTM4TmwtSE1ZZl9JcVV0ZU9Rbmk2V3ZNMjZNTDdETDVRS1NTRWpmT0lIbF94NzNWZmJoNm9ZeTdGLWZ3VTlJX2U5NGNRU0JBbURKMUp5YjZJYUhieTlXM1BxamNwOXlaUjhGYjVob1pJTDBXZW1id3VKRGRFMnpLM2taZklTT2ZyeURHWVF6b3BQa2FZbW5NYXFNNXlxbEd1MXBjSVdWSVRfM3Btem84NXZ6bThFVFhZTG1TTHJZSjE4ZVF4SkJjbnVYYzVwalpULUFzcDFOYV9FZW5hUFRxZjVqcHZLTUhOcmJKaVFiWFFVczlwTThwd01yRTZCaDE2bUpyd2trZ1pBLTAxc1Zwc3RiWlhZV2tDRHFNa3ZPOS1UNTlhSVhaUU5NbG9FZHBxR1JzZ1JfVS1QaVlUaFRhdDZoaTlpcVg4WF9zYjZfbEZKNXlpNnpXWFlzT2xWeW5vRWVXaVBreldyc19pamk4aDVZOW5iSUhVUkZDNV0tLT48L2c+PC9zdmc+;" vertex="1" parent="1">
            <mxGeometry x="80" y="1140" width="690" height="965.3" as="geometry" />
          </mxCell>
        </UserObject>
        <UserObject label="" plantUmlData="{&#xa;  &quot;data&quot;: &quot;@startuml\nskinparam componentStyle uml2\nskinparam ArrowColor DarkBlue\nallowmixing\n\n&#39; Grouping components into layers\npackage \&quot;User Interface Layer\&quot; {\n  component \&quot;User Interface\&quot; as UI\n}\n\npackage \&quot;Business Logic Layer\&quot; {\n  component \&quot;Booking System\&quot; as BS\n  component \&quot;Payment Gateway\&quot; as PG\n}\n\npackage \&quot;Data &amp; Notification Layer\&quot; {\n  component \&quot;Database\&quot; as DB\n  component \&quot;Notification Service\&quot; as NS\n}\n\n&#39; Grouping interface definitions\npackage \&quot;Interfaces\&quot; {\n  interface IBooking_Interface {\n    +checkAvailability()\n    +reserveSeats()\n  }\n  \n  interface IPayment_Interface {\n    +processPayment()\n  }\n  \n  interface INotification_Interface {\n    +sendEmail()\n    +sendSMS()\n  }\n}\n\n&#39; Defining relationships between components and interfaces\nUI --&gt; IBooking_Interface : requires\nBS ..&gt; IBooking_Interface : provides\n\nUI --&gt; IPayment_Interface : requires\nPG ..&gt; IPayment_Interface : provides\n\nBS --&gt; DB : reads/writes data\n\nBS --&gt; INotification_Interface : requires\nNS ..&gt; INotification_Interface : provides\n@enduml\n&quot;,&#xa;  &quot;format&quot;: &quot;svg&quot;&#xa;}" id="HTzx3mXwLKjGqoxVnwJw-15">
          <mxCell style="shape=image;noLabel=1;verticalAlign=top;aspect=fixed;imageAspect=0;image=data:image/svg+xml,PHN2ZyB4bWxucz0iaHR0cDovL3d3dy53My5vcmcvMjAwMC9zdmciIHhtbG5zOnhsaW5rPSJodHRwOi8vd3d3LnczLm9yZy8xOTk5L3hsaW5rIiBjb250ZW50U3R5bGVUeXBlPSJ0ZXh0L2NzcyIgZGF0YS1kaWFncmFtLXR5cGU9IkNMQVNTIiBoZWlnaHQ9IjQyMnB4IiBwcmVzZXJ2ZUFzcGVjdFJhdGlvPSJub25lIiBzdHlsZT0id2lkdGg6OTEzcHg7aGVpZ2h0OjQyMnB4O2JhY2tncm91bmQ6I0ZGRkZGRjsiIHZlcnNpb249IjEuMSIgdmlld0JveD0iMCAwIDkxMyA0MjIiIHdpZHRoPSI5MTNweCIgem9vbUFuZFBhbj0ibWFnbmlmeSI+PGRlZnMvPjxnPjwhLS1jbHVzdGVyIFVzZXIgSW50ZXJmYWNlIExheWVyLS0+PGcgY2xhc3M9ImNsdXN0ZXIiIGRhdGEtZW50aXR5PSJVc2VyIEludGVyZmFjZSBMYXllciIgZGF0YS1zb3VyY2UtbGluZT0iNiIgZGF0YS11aWQ9ImVudDAwMDIiIGlkPSJjbHVzdGVyX1VzZXIgSW50ZXJmYWNlIExheWVyIj48cGF0aCBkPSJNOC41LDE0NyBMMTQ5LjUsMTQ3IEEzLjc1LDMuNzUgMCAwIDEgMTUyLDE0OS41IEwxNTksMTY3Ljk4NDQgTDE3My41LDE2Ny45ODQ0IEEyLjUsMi41IDAgMCAxIDE3NiwxNzAuNDg0NCBMMTc2LDIzOC41IEEyLjUsMi41IDAgMCAxIDE3My41LDI0MSBMOC41LDI0MSBBMi41LDIuNSAwIDAgMSA2LDIzOC41IEw2LDE0OS41IEEyLjUsMi41IDAgMCAxIDguNSwxNDciIGZpbGw9Im5vbmUiIHN0eWxlPSJzdHJva2U6IzAwMDAwMDtzdHJva2Utd2lkdGg6MS41OyIvPjxsaW5lIHN0eWxlPSJzdHJva2U6IzAwMDAwMDtzdHJva2Utd2lkdGg6MS41OyIgeDE9IjYiIHgyPSIxNTkiIHkxPSIxNjcuOTg0NCIgeTI9IjE2Ny45ODQ0Ii8+PHRleHQgZmlsbD0iIzAwMDAwMCIgZm9udC1mYW1pbHk9InNhbnMtc2VyaWYiIGZvbnQtc2l6ZT0iMTQiIGZvbnQtd2VpZ2h0PSJib2xkIiBsZW5ndGhBZGp1c3Q9InNwYWNpbmciIHRleHRMZW5ndGg9IjE0MCIgeD0iMTAiIHk9IjE2Mi4yMzQ0Ij5Vc2VyIEludGVyZmFjZSBMYXllcjwvdGV4dD48L2c+PCEtLWNsdXN0ZXIgQnVzaW5lc3MgTG9naWMgTGF5ZXItLT48ZyBjbGFzcz0iY2x1c3RlciIgZGF0YS1lbnRpdHk9IkJ1c2luZXNzIExvZ2ljIExheWVyIiBkYXRhLXNvdXJjZS1saW5lPSIxMCIgZGF0YS11aWQ9ImVudDAwMDQiIGlkPSJjbHVzdGVyX0J1c2luZXNzIExvZ2ljIExheWVyIj48cGF0aCBkPSJNNTAzLjUsNiBMNjQ0LjUsNiBBMy43NSwzLjc1IDAgMCAxIDY0Nyw4LjUgTDY1NCwyNi45ODQ0IEw4NDkuNSwyNi45ODQ0IEEyLjUsMi41IDAgMCAxIDg1MiwyOS40ODQ0IEw4NTIsOTcuNSBBMi41LDIuNSAwIDAgMSA4NDkuNSwxMDAgTDUwMy41LDEwMCBBMi41LDIuNSAwIDAgMSA1MDEsOTcuNSBMNTAxLDguNSBBMi41LDIuNSAwIDAgMSA1MDMuNSw2IiBmaWxsPSJub25lIiBzdHlsZT0ic3Ryb2tlOiMwMDAwMDA7c3Ryb2tlLXdpZHRoOjEuNTsiLz48bGluZSBzdHlsZT0ic3Ryb2tlOiMwMDAwMDA7c3Ryb2tlLXdpZHRoOjEuNTsiIHgxPSI1MDEiIHgyPSI2NTQiIHkxPSIyNi45ODQ0IiB5Mj0iMjYuOTg0NCIvPjx0ZXh0IGZpbGw9IiMwMDAwMDAiIGZvbnQtZmFtaWx5PSJzYW5zLXNlcmlmIiBmb250LXNpemU9IjE0IiBmb250LXdlaWdodD0iYm9sZCIgbGVuZ3RoQWRqdXN0PSJzcGFjaW5nIiB0ZXh0TGVuZ3RoPSIxNDAiIHg9IjUwNSIgeT0iMjEuMjM0NCI+QnVzaW5lc3MgTG9naWMgTGF5ZXI8L3RleHQ+PC9nPjwhLS1jbHVzdGVyIERhdGEgJiBOb3RpZmljYXRpb24gTGF5ZXItLT48ZyBjbGFzcz0iY2x1c3RlciIgZGF0YS1lbnRpdHk9IkRhdGEgJmFtcDsgTm90aWZpY2F0aW9uIExheWVyIiBkYXRhLXNvdXJjZS1saW5lPSIxNSIgZGF0YS11aWQ9ImVudDAwMDciIGlkPSJjbHVzdGVyX0RhdGEgJmFtcDsgTm90aWZpY2F0aW9uIExheWVyIj48cGF0aCBkPSJNMjAyLjUsMTQ3IEwzNzguNSwxNDcgQTMuNzUsMy43NSAwIDAgMSAzODEsMTQ5LjUgTDM4OCwxNjcuOTg0NCBMNTQwLjUsMTY3Ljk4NDQgQTIuNSwyLjUgMCAwIDEgNTQzLDE3MC40ODQ0IEw1NDMsMjM4LjUgQTIuNSwyLjUgMCAwIDEgNTQwLjUsMjQxIEwyMDIuNSwyNDEgQTIuNSwyLjUgMCAwIDEgMjAwLDIzOC41IEwyMDAsMTQ5LjUgQTIuNSwyLjUgMCAwIDEgMjAyLjUsMTQ3IiBmaWxsPSJub25lIiBzdHlsZT0ic3Ryb2tlOiMwMDAwMDA7c3Ryb2tlLXdpZHRoOjEuNTsiLz48bGluZSBzdHlsZT0ic3Ryb2tlOiMwMDAwMDA7c3Ryb2tlLXdpZHRoOjEuNTsiIHgxPSIyMDAiIHgyPSIzODgiIHkxPSIxNjcuOTg0NCIgeTI9IjE2Ny45ODQ0Ii8+PHRleHQgZmlsbD0iIzAwMDAwMCIgZm9udC1mYW1pbHk9InNhbnMtc2VyaWYiIGZvbnQtc2l6ZT0iMTQiIGZvbnQtd2VpZ2h0PSJib2xkIiBsZW5ndGhBZGp1c3Q9InNwYWNpbmciIHRleHRMZW5ndGg9IjE3NSIgeD0iMjA0IiB5PSIxNjIuMjM0NCI+RGF0YSAmYW1wOyBOb3RpZmljYXRpb24gTGF5ZXI8L3RleHQ+PC9nPjwhLS1jbHVzdGVyIEludGVyZmFjZXMtLT48ZyBjbGFzcz0iY2x1c3RlciIgZGF0YS1lbnRpdHk9IkludGVyZmFjZXMiIGRhdGEtc291cmNlLWxpbmU9IjIxIiBkYXRhLXVpZD0iZW50MDAxMCIgaWQ9ImNsdXN0ZXJfSW50ZXJmYWNlcyI+PHBhdGggZD0iTTI5Ni41LDI4OCBMMzY3LjUsMjg4IEEzLjc1LDMuNzUgMCAwIDEgMzcwLDI5MC41IEwzNzcsMzA4Ljk4NDQgTDkwMy41LDMwOC45ODQ0IEEyLjUsMi41IDAgMCAxIDkwNiwzMTEuNDg0NCBMOTA2LDQxMi41IEEyLjUsMi41IDAgMCAxIDkwMy41LDQxNSBMMjk2LjUsNDE1IEEyLjUsMi41IDAgMCAxIDI5NCw0MTIuNSBMMjk0LDI5MC41IEEyLjUsMi41IDAgMCAxIDI5Ni41LDI4OCIgZmlsbD0ibm9uZSIgc3R5bGU9InN0cm9rZTojMDAwMDAwO3N0cm9rZS13aWR0aDoxLjU7Ii8+PGxpbmUgc3R5bGU9InN0cm9rZTojMDAwMDAwO3N0cm9rZS13aWR0aDoxLjU7IiB4MT0iMjk0IiB4Mj0iMzc3IiB5MT0iMzA4Ljk4NDQiIHkyPSIzMDguOTg0NCIvPjx0ZXh0IGZpbGw9IiMwMDAwMDAiIGZvbnQtZmFtaWx5PSJzYW5zLXNlcmlmIiBmb250LXNpemU9IjE0IiBmb250LXdlaWdodD0iYm9sZCIgbGVuZ3RoQWRqdXN0PSJzcGFjaW5nIiB0ZXh0TGVuZ3RoPSI3MCIgeD0iMjk4IiB5PSIzMDMuMjM0NCI+SW50ZXJmYWNlczwvdGV4dD48L2c+PCEtLWVudGl0eSBVSS0tPjxnIGNsYXNzPSJlbnRpdHkiIGRhdGEtZW50aXR5PSJVSSIgZGF0YS1zb3VyY2UtbGluZT0iNyIgZGF0YS11aWQ9ImVudDAwMDMiIGlkPSJlbnRpdHlfVUkiPjxyZWN0IGZpbGw9IiNGMUYxRjEiIGhlaWdodD0iNDQuOTg0NCIgcng9IjIuNSIgcnk9IjIuNSIgc3R5bGU9InN0cm9rZTojMTgxODE4O3N0cm9rZS13aWR0aDowLjU7IiB3aWR0aD0iMTM4IiB4PSIyMiIgeT0iMTgwIi8+PHJlY3QgZmlsbD0iI0YxRjFGMSIgaGVpZ2h0PSIxMCIgc3R5bGU9InN0cm9rZTojMTgxODE4O3N0cm9rZS13aWR0aDowLjU7IiB3aWR0aD0iMTUiIHg9IjE0MCIgeT0iMTg1Ii8+PHJlY3QgZmlsbD0iI0YxRjFGMSIgaGVpZ2h0PSIyIiBzdHlsZT0ic3Ryb2tlOiMxODE4MTg7c3Ryb2tlLXdpZHRoOjAuNTsiIHdpZHRoPSI0IiB4PSIxMzgiIHk9IjE4NyIvPjxyZWN0IGZpbGw9IiNGMUYxRjEiIGhlaWdodD0iMiIgc3R5bGU9InN0cm9rZTojMTgxODE4O3N0cm9rZS13aWR0aDowLjU7IiB3aWR0aD0iNCIgeD0iMTM4IiB5PSIxOTEiLz48dGV4dCBmaWxsPSIjMDAwMDAwIiBmb250LWZhbWlseT0ic2Fucy1zZXJpZiIgZm9udC1zaXplPSIxNCIgbGVuZ3RoQWRqdXN0PSJzcGFjaW5nIiB0ZXh0TGVuZ3RoPSI5OCIgeD0iMzciIHk9IjIxMy4yMzQ0Ij5Vc2VyIEludGVyZmFjZTwvdGV4dD48L2c+PCEtLWVudGl0eSBCUy0tPjxnIGNsYXNzPSJlbnRpdHkiIGRhdGEtZW50aXR5PSJCUyIgZGF0YS1zb3VyY2UtbGluZT0iMTEiIGRhdGEtdWlkPSJlbnQwMDA1IiBpZD0iZW50aXR5X0JTIj48cmVjdCBmaWxsPSIjRjFGMUYxIiBoZWlnaHQ9IjQ0Ljk4NDQiIHJ4PSIyLjUiIHJ5PSIyLjUiIHN0eWxlPSJzdHJva2U6IzE4MTgxODtzdHJva2Utd2lkdGg6MC41OyIgd2lkdGg9IjEzOCIgeD0iNTE3IiB5PSIzOSIvPjxyZWN0IGZpbGw9IiNGMUYxRjEiIGhlaWdodD0iMTAiIHN0eWxlPSJzdHJva2U6IzE4MTgxODtzdHJva2Utd2lkdGg6MC41OyIgd2lkdGg9IjE1IiB4PSI2MzUiIHk9IjQ0Ii8+PHJlY3QgZmlsbD0iI0YxRjFGMSIgaGVpZ2h0PSIyIiBzdHlsZT0ic3Ryb2tlOiMxODE4MTg7c3Ryb2tlLXdpZHRoOjAuNTsiIHdpZHRoPSI0IiB4PSI2MzMiIHk9IjQ2Ii8+PHJlY3QgZmlsbD0iI0YxRjFGMSIgaGVpZ2h0PSIyIiBzdHlsZT0ic3Ryb2tlOiMxODE4MTg7c3Ryb2tlLXdpZHRoOjAuNTsiIHdpZHRoPSI0IiB4PSI2MzMiIHk9IjUwIi8+PHRleHQgZmlsbD0iIzAwMDAwMCIgZm9udC1mYW1pbHk9InNhbnMtc2VyaWYiIGZvbnQtc2l6ZT0iMTQiIGxlbmd0aEFkanVzdD0ic3BhY2luZyIgdGV4dExlbmd0aD0iOTgiIHg9IjUzMiIgeT0iNzIuMjM0NCI+Qm9va2luZyBTeXN0ZW08L3RleHQ+PC9nPjwhLS1lbnRpdHkgUEctLT48ZyBjbGFzcz0iZW50aXR5IiBkYXRhLWVudGl0eT0iUEciIGRhdGEtc291cmNlLWxpbmU9IjEyIiBkYXRhLXVpZD0iZW50MDAwNiIgaWQ9ImVudGl0eV9QRyI+PHJlY3QgZmlsbD0iI0YxRjFGMSIgaGVpZ2h0PSI0NC45ODQ0IiByeD0iMi41IiByeT0iMi41IiBzdHlsZT0ic3Ryb2tlOiMxODE4MTg7c3Ryb2tlLXdpZHRoOjAuNTsiIHdpZHRoPSIxNDUiIHg9IjY5MC41IiB5PSIzOSIvPjxyZWN0IGZpbGw9IiNGMUYxRjEiIGhlaWdodD0iMTAiIHN0eWxlPSJzdHJva2U6IzE4MTgxODtzdHJva2Utd2lkdGg6MC41OyIgd2lkdGg9IjE1IiB4PSI4MTUuNSIgeT0iNDQiLz48cmVjdCBmaWxsPSIjRjFGMUYxIiBoZWlnaHQ9IjIiIHN0eWxlPSJzdHJva2U6IzE4MTgxODtzdHJva2Utd2lkdGg6MC41OyIgd2lkdGg9IjQiIHg9IjgxMy41IiB5PSI0NiIvPjxyZWN0IGZpbGw9IiNGMUYxRjEiIGhlaWdodD0iMiIgc3R5bGU9InN0cm9rZTojMTgxODE4O3N0cm9rZS13aWR0aDowLjU7IiB3aWR0aD0iNCIgeD0iODEzLjUiIHk9IjUwIi8+PHRleHQgZmlsbD0iIzAwMDAwMCIgZm9udC1mYW1pbHk9InNhbnMtc2VyaWYiIGZvbnQtc2l6ZT0iMTQiIGxlbmd0aEFkanVzdD0ic3BhY2luZyIgdGV4dExlbmd0aD0iMTA1IiB4PSI3MDUuNSIgeT0iNzIuMjM0NCI+UGF5bWVudCBHYXRld2F5PC90ZXh0PjwvZz48IS0tZW50aXR5IERCLS0+PGcgY2xhc3M9ImVudGl0eSIgZGF0YS1lbnRpdHk9IkRCIiBkYXRhLXNvdXJjZS1saW5lPSIxNiIgZGF0YS11aWQ9ImVudDAwMDgiIGlkPSJlbnRpdHlfREIiPjxyZWN0IGZpbGw9IiNGMUYxRjEiIGhlaWdodD0iNDQuOTg0NCIgcng9IjIuNSIgcnk9IjIuNSIgc3R5bGU9InN0cm9rZTojMTgxODE4O3N0cm9rZS13aWR0aDowLjU7IiB3aWR0aD0iOTYiIHg9IjQzMSIgeT0iMTgwIi8+PHJlY3QgZmlsbD0iI0YxRjFGMSIgaGVpZ2h0PSIxMCIgc3R5bGU9InN0cm9rZTojMTgxODE4O3N0cm9rZS13aWR0aDowLjU7IiB3aWR0aD0iMTUiIHg9IjUwNyIgeT0iMTg1Ii8+PHJlY3QgZmlsbD0iI0YxRjFGMSIgaGVpZ2h0PSIyIiBzdHlsZT0ic3Ryb2tlOiMxODE4MTg7c3Ryb2tlLXdpZHRoOjAuNTsiIHdpZHRoPSI0IiB4PSI1MDUiIHk9IjE4NyIvPjxyZWN0IGZpbGw9IiNGMUYxRjEiIGhlaWdodD0iMiIgc3R5bGU9InN0cm9rZTojMTgxODE4O3N0cm9rZS13aWR0aDowLjU7IiB3aWR0aD0iNCIgeD0iNTA1IiB5PSIxOTEiLz48dGV4dCBmaWxsPSIjMDAwMDAwIiBmb250LWZhbWlseT0ic2Fucy1zZXJpZiIgZm9udC1zaXplPSIxNCIgbGVuZ3RoQWRqdXN0PSJzcGFjaW5nIiB0ZXh0TGVuZ3RoPSI1NiIgeD0iNDQ2IiB5PSIyMTMuMjM0NCI+RGF0YWJhc2U8L3RleHQ+PC9nPjwhLS1lbnRpdHkgTlMtLT48ZyBjbGFzcz0iZW50aXR5IiBkYXRhLWVudGl0eT0iTlMiIGRhdGEtc291cmNlLWxpbmU9IjE3IiBkYXRhLXVpZD0iZW50MDAwOSIgaWQ9ImVudGl0eV9OUyI+PHJlY3QgZmlsbD0iI0YxRjFGMSIgaGVpZ2h0PSI0NC45ODQ0IiByeD0iMi41IiByeT0iMi41IiBzdHlsZT0ic3Ryb2tlOiMxODE4MTg7c3Ryb2tlLXdpZHRoOjAuNTsiIHdpZHRoPSIxODAiIHg9IjIxNiIgeT0iMTgwIi8+PHJlY3QgZmlsbD0iI0YxRjFGMSIgaGVpZ2h0PSIxMCIgc3R5bGU9InN0cm9rZTojMTgxODE4O3N0cm9rZS13aWR0aDowLjU7IiB3aWR0aD0iMTUiIHg9IjM3NiIgeT0iMTg1Ii8+PHJlY3QgZmlsbD0iI0YxRjFGMSIgaGVpZ2h0PSIyIiBzdHlsZT0ic3Ryb2tlOiMxODE4MTg7c3Ryb2tlLXdpZHRoOjAuNTsiIHdpZHRoPSI0IiB4PSIzNzQiIHk9IjE4NyIvPjxyZWN0IGZpbGw9IiNGMUYxRjEiIGhlaWdodD0iMiIgc3R5bGU9InN0cm9rZTojMTgxODE4O3N0cm9rZS13aWR0aDowLjU7IiB3aWR0aD0iNCIgeD0iMzc0IiB5PSIxOTEiLz48dGV4dCBmaWxsPSIjMDAwMDAwIiBmb250LWZhbWlseT0ic2Fucy1zZXJpZiIgZm9udC1zaXplPSIxNCIgbGVuZ3RoQWRqdXN0PSJzcGFjaW5nIiB0ZXh0TGVuZ3RoPSIxNDAiIHg9IjIzMSIgeT0iMjEzLjIzNDQiPk5vdGlmaWNhdGlvbiBTZXJ2aWNlPC90ZXh0PjwvZz48IS0tY2xhc3MgSUJvb2tpbmdfSW50ZXJmYWNlLS0+PGcgY2xhc3M9ImVudGl0eSIgZGF0YS1lbnRpdHk9IklCb29raW5nX0ludGVyZmFjZSIgZGF0YS1zb3VyY2UtbGluZT0iMjIiIGRhdGEtdWlkPSJlbnQwMDExIiBpZD0iZW50aXR5X0lCb29raW5nX0ludGVyZmFjZSI+PHJlY3QgZmlsbD0iI0YxRjFGMSIgaGVpZ2h0PSI3Ny45Njg4IiByeD0iMi41IiByeT0iMi41IiBzdHlsZT0ic3Ryb2tlOiMxODE4MTg7c3Ryb2tlLXdpZHRoOjAuNTsiIHdpZHRoPSIxNTkiIHg9IjMwOS41IiB5PSIzMjEiLz48ZWxsaXBzZSBjeD0iMzI0Ljk1IiBjeT0iMzM3IiBmaWxsPSIjQjRBN0U1IiByeD0iMTEiIHJ5PSIxMSIgc3R5bGU9InN0cm9rZTojMTgxODE4O3N0cm9rZS13aWR0aDoxOyIvPjxwYXRoIGQ9Ik0zMjguMDc1LDM0MyBMMzI4LjA3NSwzNDEuMjUgTDMyNS45NSwzNDEuMjUgUTMyNS45NSwzNDEuMjUgMzI1Ljk1LDMzMy40Mzc1IEwzMjguMDc1LDMzMy40Mzc1IEwzMjguMDc1LDMzMS42ODc1IEwzMjIuMDc1LDMzMS42ODc1IEwzMjIuMDc1LDMzMy40Mzc1IEwzMjQuMiwzMzMuNDM3NSBRMzI0LjIsMzMzLjQzNzUgMzI0LjIsMzQxLjI1IEwzMjIuMDc1LDM0MS4yNSBMMzIyLjA3NSwzNDMgTDMyOC4wNzUsMzQzIFogIiBmaWxsPSIjMDAwMDAwIi8+PHRleHQgZmlsbD0iIzAwMDAwMCIgZm9udC1mYW1pbHk9InNhbnMtc2VyaWYiIGZvbnQtc2l6ZT0iMTQiIGZvbnQtc3R5bGU9Iml0YWxpYyIgbGVuZ3RoQWRqdXN0PSJzcGFjaW5nIiB0ZXh0TGVuZ3RoPSIxMjYiIHg9IjMzOS4wNSIgeT0iMzQyLjc0MjIiPklCb29raW5nX0ludGVyZmFjZTwvdGV4dD48bGluZSBzdHlsZT0ic3Ryb2tlOiMxODE4MTg7c3Ryb2tlLXdpZHRoOjAuNTsiIHgxPSIzMTAuNSIgeDI9IjQ2Ny41IiB5MT0iMzUzIiB5Mj0iMzUzIi8+PGxpbmUgc3R5bGU9InN0cm9rZTojMTgxODE4O3N0cm9rZS13aWR0aDowLjU7IiB4MT0iMzEwLjUiIHgyPSI0NjcuNSIgeTE9IjM2MSIgeTI9IjM2MSIvPjxlbGxpcHNlIGN4PSIzMjAuNSIgY3k9IjM3My45OTIyIiBmaWxsPSIjODRCRTg0IiByeD0iMyIgcnk9IjMiIHN0eWxlPSJzdHJva2U6IzAzODA0ODtzdHJva2Utd2lkdGg6MTsiLz48dGV4dCBmaWxsPSIjMDAwMDAwIiBmb250LWZhbWlseT0ic2Fucy1zZXJpZiIgZm9udC1zaXplPSIxNCIgbGVuZ3RoQWRqdXN0PSJzcGFjaW5nIiB0ZXh0TGVuZ3RoPSIxMzMiIHg9IjMyOS41IiB5PSIzNzguMjM0NCI+Y2hlY2tBdmFpbGFiaWxpdHkoKTwvdGV4dD48ZWxsaXBzZSBjeD0iMzIwLjUiIGN5PSIzODguOTc2NiIgZmlsbD0iIzg0QkU4NCIgcng9IjMiIHJ5PSIzIiBzdHlsZT0ic3Ryb2tlOiMwMzgwNDg7c3Ryb2tlLXdpZHRoOjE7Ii8+PHRleHQgZmlsbD0iIzAwMDAwMCIgZm9udC1mYW1pbHk9InNhbnMtc2VyaWYiIGZvbnQtc2l6ZT0iMTQiIGxlbmd0aEFkanVzdD0ic3BhY2luZyIgdGV4dExlbmd0aD0iOTgiIHg9IjMyOS41IiB5PSIzOTMuMjE4OCI+cmVzZXJ2ZVNlYXRzKCk8L3RleHQ+PC9nPjwhLS1jbGFzcyBJUGF5bWVudF9JbnRlcmZhY2UtLT48ZyBjbGFzcz0iZW50aXR5IiBkYXRhLWVudGl0eT0iSVBheW1lbnRfSW50ZXJmYWNlIiBkYXRhLXNvdXJjZS1saW5lPSIyNyIgZGF0YS11aWQ9ImVudDAwMTIiIGlkPSJlbnRpdHlfSVBheW1lbnRfSW50ZXJmYWNlIj48cmVjdCBmaWxsPSIjRjFGMUYxIiBoZWlnaHQ9IjYyLjk4NDQiIHJ4PSIyLjUiIHJ5PSIyLjUiIHN0eWxlPSJzdHJva2U6IzE4MTgxODtzdHJva2Utd2lkdGg6MC41OyIgd2lkdGg9IjE1OCIgeD0iNTAzIiB5PSIzMjguNSIvPjxlbGxpcHNlIGN4PSI1MTgiIGN5PSIzNDQuNSIgZmlsbD0iI0I0QTdFNSIgcng9IjExIiByeT0iMTEiIHN0eWxlPSJzdHJva2U6IzE4MTgxODtzdHJva2Utd2lkdGg6MTsiLz48cGF0aCBkPSJNNTIxLjEyNSwzNTAuNSBMNTIxLjEyNSwzNDguNzUgTDUxOSwzNDguNzUgUTUxOSwzNDguNzUgNTE5LDM0MC45Mzc1IEw1MjEuMTI1LDM0MC45Mzc1IEw1MjEuMTI1LDMzOS4xODc1IEw1MTUuMTI1LDMzOS4xODc1IEw1MTUuMTI1LDM0MC45Mzc1IEw1MTcuMjUsMzQwLjkzNzUgUTUxNy4yNSwzNDAuOTM3NSA1MTcuMjUsMzQ4Ljc1IEw1MTUuMTI1LDM0OC43NSBMNTE1LjEyNSwzNTAuNSBMNTIxLjEyNSwzNTAuNSBaICIgZmlsbD0iIzAwMDAwMCIvPjx0ZXh0IGZpbGw9IiMwMDAwMDAiIGZvbnQtZmFtaWx5PSJzYW5zLXNlcmlmIiBmb250LXNpemU9IjE0IiBmb250LXN0eWxlPSJpdGFsaWMiIGxlbmd0aEFkanVzdD0ic3BhY2luZyIgdGV4dExlbmd0aD0iMTI2IiB4PSI1MzIiIHk9IjM1MC4yNDIyIj5JUGF5bWVudF9JbnRlcmZhY2U8L3RleHQ+PGxpbmUgc3R5bGU9InN0cm9rZTojMTgxODE4O3N0cm9rZS13aWR0aDowLjU7IiB4MT0iNTA0IiB4Mj0iNjYwIiB5MT0iMzYwLjUiIHkyPSIzNjAuNSIvPjxsaW5lIHN0eWxlPSJzdHJva2U6IzE4MTgxODtzdHJva2Utd2lkdGg6MC41OyIgeDE9IjUwNCIgeDI9IjY2MCIgeTE9IjM2OC41IiB5Mj0iMzY4LjUiLz48ZWxsaXBzZSBjeD0iNTE0IiBjeT0iMzgxLjQ5MjIiIGZpbGw9IiM4NEJFODQiIHJ4PSIzIiByeT0iMyIgc3R5bGU9InN0cm9rZTojMDM4MDQ4O3N0cm9rZS13aWR0aDoxOyIvPjx0ZXh0IGZpbGw9IiMwMDAwMDAiIGZvbnQtZmFtaWx5PSJzYW5zLXNlcmlmIiBmb250LXNpemU9IjE0IiBsZW5ndGhBZGp1c3Q9InNwYWNpbmciIHRleHRMZW5ndGg9IjExMiIgeD0iNTIzIiB5PSIzODUuNzM0NCI+cHJvY2Vzc1BheW1lbnQoKTwvdGV4dD48L2c+PCEtLWNsYXNzIElOb3RpZmljYXRpb25fSW50ZXJmYWNlLS0+PGcgY2xhc3M9ImVudGl0eSIgZGF0YS1lbnRpdHk9IklOb3RpZmljYXRpb25fSW50ZXJmYWNlIiBkYXRhLXNvdXJjZS1saW5lPSIzMSIgZGF0YS11aWQ9ImVudDAwMTMiIGlkPSJlbnRpdHlfSU5vdGlmaWNhdGlvbl9JbnRlcmZhY2UiPjxyZWN0IGZpbGw9IiNGMUYxRjEiIGhlaWdodD0iNzcuOTY4OCIgcng9IjIuNSIgcnk9IjIuNSIgc3R5bGU9InN0cm9rZTojMTgxODE4O3N0cm9rZS13aWR0aDowLjU7IiB3aWR0aD0iMTkzIiB4PSI2OTYuNSIgeT0iMzIxIi8+PGVsbGlwc2UgY3g9IjcxMS41IiBjeT0iMzM3IiBmaWxsPSIjQjRBN0U1IiByeD0iMTEiIHJ5PSIxMSIgc3R5bGU9InN0cm9rZTojMTgxODE4O3N0cm9rZS13aWR0aDoxOyIvPjxwYXRoIGQ9Ik03MTQuNjI1LDM0MyBMNzE0LjYyNSwzNDEuMjUgTDcxMi41LDM0MS4yNSBRNzEyLjUsMzQxLjI1IDcxMi41LDMzMy40Mzc1IEw3MTQuNjI1LDMzMy40Mzc1IEw3MTQuNjI1LDMzMS42ODc1IEw3MDguNjI1LDMzMS42ODc1IEw3MDguNjI1LDMzMy40Mzc1IEw3MTAuNzUsMzMzLjQzNzUgUTcxMC43NSwzMzMuNDM3NSA3MTAuNzUsMzQxLjI1IEw3MDguNjI1LDM0MS4yNSBMNzA4LjYyNSwzNDMgTDcxNC42MjUsMzQzIFogIiBmaWxsPSIjMDAwMDAwIi8+PHRleHQgZmlsbD0iIzAwMDAwMCIgZm9udC1mYW1pbHk9InNhbnMtc2VyaWYiIGZvbnQtc2l6ZT0iMTQiIGZvbnQtc3R5bGU9Iml0YWxpYyIgbGVuZ3RoQWRqdXN0PSJzcGFjaW5nIiB0ZXh0TGVuZ3RoPSIxNjEiIHg9IjcyNS41IiB5PSIzNDIuNzQyMiI+SU5vdGlmaWNhdGlvbl9JbnRlcmZhY2U8L3RleHQ+PGxpbmUgc3R5bGU9InN0cm9rZTojMTgxODE4O3N0cm9rZS13aWR0aDowLjU7IiB4MT0iNjk3LjUiIHgyPSI4ODguNSIgeTE9IjM1MyIgeTI9IjM1MyIvPjxsaW5lIHN0eWxlPSJzdHJva2U6IzE4MTgxODtzdHJva2Utd2lkdGg6MC41OyIgeDE9IjY5Ny41IiB4Mj0iODg4LjUiIHkxPSIzNjEiIHkyPSIzNjEiLz48ZWxsaXBzZSBjeD0iNzA3LjUiIGN5PSIzNzMuOTkyMiIgZmlsbD0iIzg0QkU4NCIgcng9IjMiIHJ5PSIzIiBzdHlsZT0ic3Ryb2tlOiMwMzgwNDg7c3Ryb2tlLXdpZHRoOjE7Ii8+PHRleHQgZmlsbD0iIzAwMDAwMCIgZm9udC1mYW1pbHk9InNhbnMtc2VyaWYiIGZvbnQtc2l6ZT0iMTQiIGxlbmd0aEFkanVzdD0ic3BhY2luZyIgdGV4dExlbmd0aD0iNzciIHg9IjcxNi41IiB5PSIzNzguMjM0NCI+c2VuZEVtYWlsKCk8L3RleHQ+PGVsbGlwc2UgY3g9IjcwNy41IiBjeT0iMzg4Ljk3NjYiIGZpbGw9IiM4NEJFODQiIHJ4PSIzIiByeT0iMyIgc3R5bGU9InN0cm9rZTojMDM4MDQ4O3N0cm9rZS13aWR0aDoxOyIvPjx0ZXh0IGZpbGw9IiMwMDAwMDAiIGZvbnQtZmFtaWx5PSJzYW5zLXNlcmlmIiBmb250LXNpemU9IjE0IiBsZW5ndGhBZGp1c3Q9InNwYWNpbmciIHRleHRMZW5ndGg9IjYzIiB4PSI3MTYuNSIgeT0iMzkzLjIxODgiPnNlbmRTTVMoKTwvdGV4dD48L2c+PCEtLWxpbmsgVUkgdG8gSUJvb2tpbmdfSW50ZXJmYWNlLS0+PGcgY2xhc3M9ImxpbmsiIGRhdGEtZW50aXR5LTE9IlVJIiBkYXRhLWVudGl0eS0yPSJJQm9va2luZ19JbnRlcmZhY2UiIGRhdGEtc291cmNlLWxpbmU9IjM4IiBkYXRhLXVpZD0ibG5rMTQiIGlkPSJsaW5rX1VJX0lCb29raW5nX0ludGVyZmFjZSI+PHBhdGggY29kZUxpbmU9IjM4IiBkPSJNMTMyLjQ0LDIyNS4xMiBDMTc5Ljg1LDI0OS44NiAyNTMuMDcwMywyODguMDc1IDMxMC43OTAzLDMxOC4xODUiIGZpbGw9Im5vbmUiIGlkPSJVSS10by1JQm9va2luZ19JbnRlcmZhY2UiIHN0eWxlPSJzdHJva2U6IzAwMDA4QjtzdHJva2Utd2lkdGg6MTsiLz48cG9seWdvbiBmaWxsPSIjMDAwMDhCIiBwb2ludHM9IjMxNi4xMSwzMjAuOTYsMzA5Ljk4MDUsMzEzLjI1MSwzMTEuNjc2OSwzMTguNjQ3NSwzMDYuMjgwNCwzMjAuMzQzOSwzMTYuMTEsMzIwLjk2IiBzdHlsZT0ic3Ryb2tlOiMwMDAwOEI7c3Ryb2tlLXdpZHRoOjE7Ii8+PHRleHQgZmlsbD0iIzAwMDAwMCIgZm9udC1mYW1pbHk9InNhbnMtc2VyaWYiIGZvbnQtc2l6ZT0iMTMiIGxlbmd0aEFkanVzdD0ic3BhY2luZyIgdGV4dExlbmd0aD0iNTIiIHg9IjIyNCIgeT0iMjcwLjI4OTEiPnJlcXVpcmVzPC90ZXh0PjwvZz48IS0tbGluayBCUyB0byBJQm9va2luZ19JbnRlcmZhY2UtLT48ZyBjbGFzcz0ibGluayIgZGF0YS1lbnRpdHktMT0iQlMiIGRhdGEtZW50aXR5LTI9IklCb29raW5nX0ludGVyZmFjZSIgZGF0YS1zb3VyY2UtbGluZT0iMzkiIGRhdGEtdWlkPSJsbmsxNSIgaWQ9ImxpbmtfQlNfSUJvb2tpbmdfSW50ZXJmYWNlIj48cGF0aCBjb2RlTGluZT0iMzkiIGQ9Ik01ODYuNzEsODQuMDEgQzU4Ni44MiwxMjEuNTUgNTgxLjk0LDE5OS43MyA1NDMsMjQ5IEM1MjUuMTIsMjcxLjYzIDUwOS45NSwyNjMuOTQgNDg2LDI4MCBDNDY3Ljc4LDI5Mi4yMiA0NTMuNDUwNywzMDMuMjUwNiA0MzcuMTkwNywzMTYuNzkwNiIgZmlsbD0ibm9uZSIgaWQ9IkJTLXRvLUlCb29raW5nX0ludGVyZmFjZSIgc3R5bGU9InN0cm9rZTojMDAwMDhCO3N0cm9rZS13aWR0aDoxO3N0cm9rZS1kYXNoYXJyYXk6Ny4wLDcuMDsiLz48cG9seWdvbiBmaWxsPSIjMDAwMDhCIiBwb2ludHM9IjQzMi41OCwzMjAuNjMsNDQyLjA1NTcsMzE3Ljk0NDcsNDM2LjQyMjMsMzE3LjQzMDUsNDM2LjkzNjUsMzExLjc5Nyw0MzIuNTgsMzIwLjYzIiBzdHlsZT0ic3Ryb2tlOiMwMDAwOEI7c3Ryb2tlLXdpZHRoOjE7Ii8+PHRleHQgZmlsbD0iIzAwMDAwMCIgZm9udC1mYW1pbHk9InNhbnMtc2VyaWYiIGZvbnQtc2l6ZT0iMTMiIGxlbmd0aEFkanVzdD0ic3BhY2luZyIgdGV4dExlbmd0aD0iNTIiIHg9IjU4NCIgeT0iMjA4LjI4OTEiPnByb3ZpZGVzPC90ZXh0PjwvZz48IS0tbGluayBVSSB0byBJUGF5bWVudF9JbnRlcmZhY2UtLT48ZyBjbGFzcz0ibGluayIgZGF0YS1lbnRpdHktMT0iVUkiIGRhdGEtZW50aXR5LTI9IklQYXltZW50X0ludGVyZmFjZSIgZGF0YS1zb3VyY2UtbGluZT0iNDEiIGRhdGEtdWlkPSJsbmsxNiIgaWQ9ImxpbmtfVUlfSVBheW1lbnRfSW50ZXJmYWNlIj48cGF0aCBjb2RlTGluZT0iNDEiIGQ9Ik0xMzQuMjUsMjI1LjEgQzE1My44NiwyMzMuOTUgMTc3LjYyLDI0My40MSAyMDAsMjQ5IEMyMzYuODEsMjU4LjE5IDI0Ny4zMiwyNTIuNTQgMjg1LDI1NyBDMzMxLjgxLDI2Mi41NCAzNDMuMTYsMjY2LjcxIDM5MCwyNzIgQzQxMS4yNywyNzQuNCA0NjYuMTcsMjcxLjk0IDQ4NiwyODAgQzUxMi4yLDI5MC42NCA1MzIuNDQzNywzMDYuODcxMyA1NTAuMTQzNywzMjQuMjkxMyIgZmlsbD0ibm9uZSIgaWQ9IlVJLXRvLUlQYXltZW50X0ludGVyZmFjZSIgc3R5bGU9InN0cm9rZTojMDAwMDhCO3N0cm9rZS13aWR0aDoxOyIvPjxwb2x5Z29uIGZpbGw9IiMwMDAwOEIiIHBvaW50cz0iNTU0LjQyLDMyOC41LDU1MC44MTEzLDMxOS4zMzYxLDU1MC44NTY0LDMyNC45OTI4LDU0NS4xOTk3LDMyNS4wMzc5LDU1NC40MiwzMjguNSIgc3R5bGU9InN0cm9rZTojMDAwMDhCO3N0cm9rZS13aWR0aDoxOyIvPjx0ZXh0IGZpbGw9IiMwMDAwMDAiIGZvbnQtZmFtaWx5PSJzYW5zLXNlcmlmIiBmb250LXNpemU9IjEzIiBsZW5ndGhBZGp1c3Q9InNwYWNpbmciIHRleHRMZW5ndGg9IjUyIiB4PSIzOTEiIHk9IjI3MC4yODkxIj5yZXF1aXJlczwvdGV4dD48L2c+PCEtLWxpbmsgUEcgdG8gSVBheW1lbnRfSW50ZXJmYWNlLS0+PGcgY2xhc3M9ImxpbmsiIGRhdGEtZW50aXR5LTE9IlBHIiBkYXRhLWVudGl0eS0yPSJJUGF5bWVudF9JbnRlcmZhY2UiIGRhdGEtc291cmNlLWxpbmU9IjQyIiBkYXRhLXVpZD0ibG5rMTciIGlkPSJsaW5rX1BHX0lQYXltZW50X0ludGVyZmFjZSI+PHBhdGggY29kZUxpbmU9IjQyIiBkPSJNNzYwLjM1LDg0LjAxIEM3NTQuMDEsMTMxLjkzIDczNi41MywyNDUuMzQgNzEwLDI3MiBDNjk5Ljk2LDI4Mi4wOSA2OTEuNywyNzMuNTggNjc5LDI4MCBDNjU0LjU4LDI5Mi4zNSA2MzUuMTI1OCwzMDcuNjI4OCA2MTcuMTY1OCwzMjQuMDY4OCIgZmlsbD0ibm9uZSIgaWQ9IlBHLXRvLUlQYXltZW50X0ludGVyZmFjZSIgc3R5bGU9InN0cm9rZTojMDAwMDhCO3N0cm9rZS13aWR0aDoxO3N0cm9rZS1kYXNoYXJyYXk6Ny4wLDcuMDsiLz48cG9seWdvbiBmaWxsPSIjMDAwMDhCIiBwb2ludHM9IjYxMi43NCwzMjguMTIsNjIyLjA3OTUsMzI0Ljk5MzcsNjE2LjQyODIsMzI0Ljc0NCw2MTYuNjc3OSwzMTkuMDkyNiw2MTIuNzQsMzI4LjEyIiBzdHlsZT0ic3Ryb2tlOiMwMDAwOEI7c3Ryb2tlLXdpZHRoOjE7Ii8+PHRleHQgZmlsbD0iIzAwMDAwMCIgZm9udC1mYW1pbHk9InNhbnMtc2VyaWYiIGZvbnQtc2l6ZT0iMTMiIGxlbmd0aEFkanVzdD0ic3BhY2luZyIgdGV4dExlbmd0aD0iNTIiIHg9Ijc1MiIgeT0iMjA4LjI4OTEiPnByb3ZpZGVzPC90ZXh0PjwvZz48IS0tbGluayBCUyB0byBEQi0tPjxnIGNsYXNzPSJsaW5rIiBkYXRhLWVudGl0eS0xPSJCUyIgZGF0YS1lbnRpdHktMj0iREIiIGRhdGEtc291cmNlLWxpbmU9IjQ0IiBkYXRhLXVpZD0ibG5rMTgiIGlkPSJsaW5rX0JTX0RCIj48cGF0aCBjb2RlTGluZT0iNDQiIGQ9Ik01MTYuNzQsNzUuNjggQzQ5NC41MSw4My41NCA0NzIuMjMsOTYuMDcgNDU5LDExNiBDNDQ2LjI3LDEzNS4xOCA0NTIuNjk5MiwxNTYuMTc5MSA0NjIuNDI5MiwxNzQuNTI5MSIgZmlsbD0ibm9uZSIgaWQ9IkJTLXRvLURCIiBzdHlsZT0ic3Ryb2tlOiMwMDAwOEI7c3Ryb2tlLXdpZHRoOjE7Ii8+PHBvbHlnb24gZmlsbD0iIzAwMDA4QiIgcG9pbnRzPSI0NjUuMjQsMTc5LjgzLDQ2NC41NTc4LDE3MC4wMDQ4LDQ2Mi44OTc3LDE3NS40MTI2LDQ1Ny40ODk5LDE3My43NTI1LDQ2NS4yNCwxNzkuODMiIHN0eWxlPSJzdHJva2U6IzAwMDA4QjtzdHJva2Utd2lkdGg6MTsiLz48dGV4dCBmaWxsPSIjMDAwMDAwIiBmb250LWZhbWlseT0ic2Fucy1zZXJpZiIgZm9udC1zaXplPSIxMyIgbGVuZ3RoQWRqdXN0PSJzcGFjaW5nIiB0ZXh0TGVuZ3RoPSIxMTAuNSIgeD0iNDYwIiB5PSIxMjkuMjg5MSI+cmVhZHMvd3JpdGVzIGRhdGE8L3RleHQ+PC9nPjwhLS1saW5rIEJTIHRvIElOb3RpZmljYXRpb25fSW50ZXJmYWNlLS0+PGcgY2xhc3M9ImxpbmsiIGRhdGEtZW50aXR5LTE9IkJTIiBkYXRhLWVudGl0eS0yPSJJTm90aWZpY2F0aW9uX0ludGVyZmFjZSIgZGF0YS1zb3VyY2UtbGluZT0iNDYiIGRhdGEtdWlkPSJsbmsxOSIgaWQ9ImxpbmtfQlNfSU5vdGlmaWNhdGlvbl9JbnRlcmZhY2UiPjxwYXRoIGNvZGVMaW5lPSI0NiIgZD0iTTYyMi4yNyw4NC4yMSBDNjM3LjUyLDkyLjYxIDY1NS43MSwxMDEuNjkgNjczLDEwOCBDNzMyLjg3LDEyOS44NSA3NzMuMSw4OS4zIDgxMywxMzkgQzg1NC41NCwxOTAuNzQgODMzLjA4NzcsMjY3LjQ3MzMgODEzLjMyNzcsMzE1LjM4MzMiIGZpbGw9Im5vbmUiIGlkPSJCUy10by1JTm90aWZpY2F0aW9uX0ludGVyZmFjZSIgc3R5bGU9InN0cm9rZTojMDAwMDhCO3N0cm9rZS13aWR0aDoxOyIvPjxwb2x5Z29uIGZpbGw9IiMwMDAwOEIiIHBvaW50cz0iODExLjA0LDMyMC45Myw4MTguMTY5NCwzMTQuMTM1LDgxMi45NDY0LDMxNi4zMDc3LDgxMC43NzM3LDMxMS4wODQ3LDgxMS4wNCwzMjAuOTMiIHN0eWxlPSJzdHJva2U6IzAwMDA4QjtzdHJva2Utd2lkdGg6MTsiLz48dGV4dCBmaWxsPSIjMDAwMDAwIiBmb250LWZhbWlseT0ic2Fucy1zZXJpZiIgZm9udC1zaXplPSIxMyIgbGVuZ3RoQWRqdXN0PSJzcGFjaW5nIiB0ZXh0TGVuZ3RoPSI1MiIgeD0iODM2IiB5PSIyMDguMjg5MSI+cmVxdWlyZXM8L3RleHQ+PC9nPjwhLS1saW5rIE5TIHRvIElOb3RpZmljYXRpb25fSW50ZXJmYWNlLS0+PGcgY2xhc3M9ImxpbmsiIGRhdGEtZW50aXR5LTE9Ik5TIiBkYXRhLWVudGl0eS0yPSJJTm90aWZpY2F0aW9uX0ludGVyZmFjZSIgZGF0YS1zb3VyY2UtbGluZT0iNDciIGRhdGEtdWlkPSJsbmsyMCIgaWQ9ImxpbmtfTlNfSU5vdGlmaWNhdGlvbl9JbnRlcmZhY2UiPjxwYXRoIGNvZGVMaW5lPSI0NyIgZD0iTTM0OC45OSwyMjUuMTEgQzM2OC4xNCwyMzMuODUgMzkxLjI0LDI0My4yMyA0MTMsMjQ5IEM1MjcuNjIsMjc5LjQgNTY2Ljk5LDIzOC4zMiA2NzgsMjgwIEM3MDMuMjgsMjg5LjQ5IDcyMy41NzA1LDMwMi4wODYgNzQzLjgyMDUsMzE3LjM2NiIgZmlsbD0ibm9uZSIgaWQ9Ik5TLXRvLUlOb3RpZmljYXRpb25fSW50ZXJmYWNlIiBzdHlsZT0ic3Ryb2tlOiMwMDAwOEI7c3Ryb2tlLXdpZHRoOjE7c3Ryb2tlLWRhc2hhcnJheTo3LjAsNy4wOyIvPjxwb2x5Z29uIGZpbGw9IiMwMDAwOEIiIHBvaW50cz0iNzQ4LjYxLDMyMC45OCw3NDMuODM1MSwzMTIuMzY2LDc0NC42MTg4LDMxNy45NjgzLDczOS4wMTY1LDMxOC43NTIsNzQ4LjYxLDMyMC45OCIgc3R5bGU9InN0cm9rZTojMDAwMDhCO3N0cm9rZS13aWR0aDoxOyIvPjx0ZXh0IGZpbGw9IiMwMDAwMDAiIGZvbnQtZmFtaWx5PSJzYW5zLXNlcmlmIiBmb250LXNpemU9IjEzIiBsZW5ndGhBZGp1c3Q9InNwYWNpbmciIHRleHRMZW5ndGg9IjUyIiB4PSI2NTMiIHk9IjI3MC4yODkxIj5wcm92aWRlczwvdGV4dD48L2c+PCEtLVNSQz1bVFA5RlF6ajA0Q05sLW9hNjd2QU1hWEh3cEE0R0xTS09LY0NHRmZVbkQ3TzZoTlFMZFBLTEtWQlRpdjhMX1FjWm15QW95LVJ0UFh1aEVQaUk3SFFHc2dBcVhlbkZWQUM5Z2FCX0szOUs3dnNwekktaGhPQ09OSHhmWVhIZ1JVazJOemNTYkJnNWpSREw2VXVaSU8yRGp3Mm44SVVnbjNKNzR5NWdCLUhXT3Bvdjh3TzRKc3J2MVZ5S1o5dF9ZclEwMGxrRFViQ1o5Z2c0M09kMGFwcm5rZTI5aEN0UmNQOTZGMUtUOWFoY2FYcXNITmpQZXdTUWNxd3BNeS1pT2xHOER4MnJkZS1TZWNUaDVsblF2RzdiQ2QwU3BPa3BfZUpTY1ZsRGphYmhEdWNHWHRHb0VoQlhqY0VJdTkyQk4wT092UGotdVJ6WmxncTB1NWx3SjZkLVU0Uk1VNjNEbGxkb3pMOW01QTgtS3FCZWZOangyc1NFeElFd1hmUkVYWTZhaG96cUp6VS1IV1lQeDdTSG5sZ09mdHI4X1lHemhDaWJ4YTg4a0paSTdLUVVrSEd1YUEtOXBGSjNlU2I2UXI3eDNUcFRfVm1pYk9WMFVnYXVCQS1ZMUV4bDVxSFhtSkRkR0pJV2hoRU9lN1JoMi1lcHFPV0FYWXFnWmhmTXBFSHh4VFlKRzFQLXByMVVvY3JZai1xZE5ySC1VQnUzXS0tPjwvZz48L3N2Zz4=;" vertex="1" parent="1">
            <mxGeometry x="22.5" y="2520" width="800.5" height="370" as="geometry" />
          </mxCell>
        </UserObject>
      </root>
    </mxGraphModel>
  </diagram>
</mxfile>
